<?xml version="1.0" standalone="no"?>
<!DOCTYPE svg PUBLIC "-//W3C//DTD SVG 1.1//EN" "http://www.w3.org/Graphics/SVG/1.1/DTD/svg11.dtd" >
<svg>
<metadata>
Created by FontForge 20090914 at Thu Feb 23 21:38:04 2012
 By root
&#194;&#169; 1996 Kiwi Media Inc.  Design by Eric Oehler.
</metadata>
<defs>
<font id="Morpheus" horiz-adv-x="1024" >
  <font-face 
    font-family="Morpheus"
    font-weight="400"
    font-stretch="normal"
    units-per-em="2167"
    panose-1="0 0 4 0 0 0 0 0 0 0"
    ascent="1733"
    descent="-434"
    x-height="1301"
    cap-height="1626"
    bbox="-342 -505 2360 2425"
    underline-thickness="101"
    underline-position="-105"
    unicode-range="U+0020-U+F002"
  />
<missing-glyph horiz-adv-x="1084" 
d="M135 0v1655h813v-1655h-813zM271 135h542v1385h-542v-1385z" />
    <glyph glyph-name=".notdef" horiz-adv-x="1084" 
d="M135 0v1655h813v-1655h-813zM271 135h542v1385h-542v-1385z" />
    <glyph glyph-name="glyph1" horiz-adv-x="0" 
 />
    <glyph glyph-name="glyph2" horiz-adv-x="500" 
 />
    <glyph glyph-name="space" unicode=" " horiz-adv-x="500" 
 />
    <glyph glyph-name="exclam" unicode="!" horiz-adv-x="682" 
d="M398 1184l-92 -784h-26l-19 220q-9 110 -44 359q-31 226 -32 279q-1 99 24 154l171 -59q11 -27 23 -92q1 -30 -5 -77zM280 -70l-120 120l120 120l120 -120z" />
    <glyph glyph-name="quotedbl" unicode="&#x22;" horiz-adv-x="836" 
d="M148 1208l100 240l-100 90l120 120l120 -120zM520 1196l100 240l-100 90l120 120l120 -120z" />
    <glyph glyph-name="numbersign" unicode="#" 
d="M571 504l92 344h-216l-92 -344h216zM16 504h218l95 346h-218l16 74h219l118 429h123l-118 -429h216l116 429h121l-119 -429h218l-19 -74h-218l-92 -346h218l-22 -75h-215l-116 -429h-124l119 429h-216l-116 -429h-121l116 429h-215z" />
    <glyph glyph-name="dollar" unicode="$" horiz-adv-x="1084" 
d="M638 678v-637q120 6 189.5 77t70.5 192q2 124 -76 211q-46 52 -184 157zM538 51v701q-7 6 -22 16q-105 -70 -151 -169q-47 -102 -47 -199q0 -164 84 -262q56 -66 136 -87zM538 1023v562q-80 -10 -140 -67q-72 -68 -72 -169q0 -113 84 -210q48 -55 128 -116zM538 -23
q-153 17 -268 105q-138 106 -139 286q-1 153 96 270q55 66 221 181q-156 124 -215 202q-88 116 -89 255q-1 156 131 268q106 90 263 106v198l100 144v-337q160 -5 274 -94q125 -98 126 -253q0 -54 -103 -110q-158 -85 -159 -86l-2 2q89 111 90 200q1 111 -71 193
q-54 62 -155 77v-628q247 -169 358 -310q88 -112 89 -264q1 -182 -135 -295q-125 -103 -312 -112v-155l-100 -192v349z" />
    <glyph glyph-name="percent" unicode="%" horiz-adv-x="1706" 
d="M667 1339q21 -8 41 -26l38 -34q39 -35 151 -36t212 56q52 30 109 85h80l-789 -1413h-97l713 1280q-74 -34 -102 -42q-45 -14 -108 -15q-47 -1 -93 7q-28 5 -50 12q6 -20 11 -45q3 -14 3 -54q0 -183 -114 -345q-126 -178 -302 -178q-113 0 -182 85q-62 78 -63 194
q-1 173 133 326q137 158 308 159q59 0 101 -16zM1527 516q1 76 -35 124q-40 53 -113 54q-121 1 -219 -193q-86 -169 -86 -304t136 -136q121 -1 218.5 158t98.5 297zM1361 759q220 1 221 -245q1 -179 -116 -341q-127 -176 -299 -176q-122 0 -187 82q-60 75 -61 200
q-1 173 133 324q138 155 309 156zM734 1135q0 64 -12.5 81t-48.5 26q-26 7 -57.5 30t-38.5 23q-112 0 -210 -195q-87 -172 -88 -298q-1 -140 128 -141q141 -1 241 172q86 150 86 302z" />
    <glyph glyph-name="ampersand" unicode="&#x26;" horiz-adv-x="1593" 
d="M805 953q90 86 90 190q0 74 -44 124t-117 50q-157 0 -159 -179q-1 -114 81 -288q96 53 149 103zM827 213q-101 130 -147 202q-39 61 -164 286q-102 -60 -158 -122q-84 -93 -84 -218q0 -117 73 -197q75 -83 191 -84q149 -1 289 133zM485 772q-71 160 -72 278
q-1 141 84 235q88 98 227 99q120 1 197 -62q83 -68 84 -185q1 -212 -318 -351q132 -241 270 -421q186 229 188 369q1 56 -41 77q-23 12 -90 18v43h441v-43q-67 -8 -100 -24q-53 -26 -92 -97l-52 -95q-53 -97 -94 -156q-46 -66 -112 -149q48 -57 91 -95q107 -94 222 -95
q66 -1 112 32q17 12 165 209q-4 -17 -43 -109q-43 -100 -59 -123q-78 -112 -190 -145q-40 -12 -80 -12q-96 0 -192 61q-57 36 -152 127q-88 -81 -182 -127q-122 -60 -264 -60q-161 0 -255.5 84.5t-95.5 234.5q-1 249 325 437z" />
    <glyph glyph-name="quotesingle" unicode="'" horiz-adv-x="369" 
d="M76 1208l100 240l-100 90l120 120l120 -120z" />
    <glyph glyph-name="parenleft" unicode="(" horiz-adv-x="682" 
d="M302 1125q127 160 302 259q-82 -100 -211 -282q-120 -210 -121 -562q0 -261 46 -429q50 -183 279 -476q-122 58 -266 231q-237 285 -237 648q0 348 208 611z" />
    <glyph glyph-name="parenright" unicode=")" horiz-adv-x="682" 
d="M430 -29q-78 -126 -211 -235q-87 -71 -146 -101q79 95 206 272q126 216 126 571q0 286 -58 469q-50 159 -267 437q158 -87 294 -266q208 -274 209 -614q0 -287 -153 -533z" />
    <glyph glyph-name="asterisk" unicode="*" 
d="M236 878q161 35 238 86q-79 47 -241 89q-97 25 -98 86q-1 70 70 72q21 0 134 -95q128 -109 149 -121v26q0 55 -26 147.5t-27 135.5q-2 80 73 80q70 0 72 -81q1 -30 -26 -138q-28 -111 -28 -175l100 74q15 12 44 44.5l59 66.5q39 38 78 39q28 1 49.5 -21.5t21.5 -53.5
q0 -63 -90 -82q-153 -33 -246 -95l17 -10q79 -47 232 -78q87 -18 88 -87q1 -37 -24.5 -54t-52.5 -18q-29 -1 -120 89q-103 102 -142 122l-14 7v-14q0 -119 28.5 -198t28.5 -95q1 -46 -37 -71q-18 -12 -44 -13q-68 -1 -71 82q-1 24 36 136q33 103 21 159l-3 14
q-37 -21 -151 -126q-96 -89 -128 -89q-70 0 -71 66q-1 72 101 94z" />
    <glyph glyph-name="plus" unicode="+" horiz-adv-x="1155" 
d="M509 1035h140v-448h589l-143 -140h-446v-447h-140v447h-448l143 140h305v448z" />
    <glyph glyph-name="comma" unicode="," horiz-adv-x="569" 
d="M160 -280l100 240l-100 90l120 120l120 -120z" />
    <glyph glyph-name="hyphen" unicode="-" horiz-adv-x="682" 
d="M80 526h503v-128h-503v128z" />
    <glyph glyph-name="hyphen" unicode="&#x2010;" horiz-adv-x="682" 
d="M80 526h503v-128h-503v128z" />
    <glyph glyph-name="period" unicode="." horiz-adv-x="349" 
d="M138 -90l-120 120l120 120l120 -120z" />
    <glyph glyph-name="slash" unicode="/" horiz-adv-x="569" 
d="M459 1384h100l-453 -1418h-102z" />
    <glyph glyph-name="zero" unicode="0" 
d="M747 664q0 243 -33 388q-61 270 -232 270q-169 0 -233 -278q-33 -144 -33 -390q0 -227 34 -363q63 -253 240 -254q171 -1 228 247q29 127 29 380zM844 1135q100 -192 101 -448q0 -200 -62 -375q-117 -330 -405 -331q-239 0 -362 243q-98 192 -98 455q0 258 91 444
q124 252 378 253q231 0 357 -241z" />
    <glyph glyph-name="one" unicode="1" 
d="M611 1355v-1204q0 -82 59 -107q30 -12 135 -16v-28h-564v30q111 6 144 25q51 29 51 125v926q0 97 -64 98q-41 1 -145 -45v28l367 187h12q3 -4 3.5 -7t1.5 -12z" />
    <glyph glyph-name="two" unicode="2" 
d="M61 23q329 342 387 412q240 294 241 493q1 130 -69 214q-75 89 -202 89q-137 0 -222 -100q-47 -55 -90 -169l-43 9q88 409 426 409q168 0 273 -107t105 -260q0 -137 -114 -313q-86 -132 -249 -302l-241 -242h459q96 0 135 23t88 112l26 -12l-111 -279h-799v23z" />
    <glyph glyph-name="three" unicode="3" 
d="M498 100q127 0 203 87q72 83 73 213q1 106 -55 188q-92 136 -314 137q-10 0 -25 -1q-8 0 -28 -2l-2 26q154 55 230 115q113 88 114 216q1 101 -67.5 162t-170.5 61q-109 0 -194 -81q-45 -43 -99 -136l-31 7q38 147 143 238q110 95 258 96q151 1 235.5 -83.5t84.5 -194.5
q0 -97 -69 -178q-36 -43 -121 -103q262 -110 263 -362q1 -226 -179 -360q-163 -120 -396 -120q-220 0 -222 115q-2 74 70 74q49 0 145.5 -57t153.5 -57z" />
    <glyph glyph-name="four" unicode="4" 
d="M597 1168l-491 -694h491v694zM663 1374h95v-900h209v-133h-209v-341h-159v341h-576v133z" />
    <glyph glyph-name="five" unicode="5" 
d="M445 54q128 -1 212 114q75 105 75 237q0 258 -276 373q-151 63 -285 63q-23 0 -28 1.5t-13 10.5q3 15 7 24l218 478h429q48 0 95 52l16 -14l-78 -185q-6 -14 -61 -14h-387l-85 -175q165 -27 240 -53q233 -80 318 -284q37 -88 37 -187q1 -230 -165 -376
q-158 -140 -391 -141q-256 -1 -258 130q-1 74 88 75q49 1 147 -64t145 -65z" />
    <glyph glyph-name="six" unicode="6" 
d="M535 -22q-216 0 -349 202q-116 176 -116 402q0 360 280 606q116 102 319 165q184 56 353 57q-130 -40 -321 -106q-171 -75 -298 -293q-61 -106 -88 -220q62 38 107 56q78 31 161 32q178 1 281 -125q94 -116 94 -299q0 -189 -115 -329q-123 -148 -308 -148zM733 614
q-69 171 -238 172q-154 1 -206 -92q-30 -53 -30 -180q0 -172 60 -304q78 -171 229 -171q122 0 181 115q46 89 46 224q0 132 -42 236z" />
    <glyph glyph-name="seven" unicode="7" 
d="M919 1355v-33l-434 -1341h-132l405 1223h-436q-98 0 -150 -40q-34 -27 -97 -126l-35 16l80 197l41 104h758z" />
    <glyph glyph-name="eight" unicode="8" 
d="M748 258q1 119 -109 224q-33 32 -210 157q-164 -104 -164 -306q0 -125 61 -207q68 -92 189 -92q107 0 169.5 59t63.5 165zM658 909q61 75 62 186q1 93 -58 160t-178 68q-88 1 -150 -55.5t-62 -143.5q0 -95 70 -175q67 -77 186 -151q94 67 130 111zM194 851
q-73 97 -74 212q-1 149 126 238q112 77 268 78q139 1 239 -73q111 -81 112 -216q1 -117 -97 -210q-53 -50 -181 -122q154 -115 215 -185q101 -119 102 -255q1 -159 -123 -254q-112 -85 -276 -86q-160 -1 -272 83q-123 92 -124 246q-1 125 81 224q51 62 184 151
q-131 104 -180 169z" />
    <glyph glyph-name="nine" unicode="9" 
d="M734 675q10 30 10 179q0 179 -51 300q-70 167 -224 168q-122 1 -178 -125q-41 -91 -41 -230q0 -392 261 -394q49 0 124 30q82 34 99 72zM943 812q0 -338 -223 -589q-124 -140 -322 -211q-109 -39 -275 -60l-10 40q103 24 173 51q123 48 199 120q197 187 249 434l-35 -26
q-73 -54 -174 -77q-53 -12 -95 -12q-169 0 -272 121q-97 115 -97 287q0 202 108 340q117 149 314 149q219 0 339.5 -175t120.5 -392z" />
    <glyph glyph-name="colon" unicode=":" horiz-adv-x="569" 
d="M280 680l-120 120l120 120l120 -120zM280 -70l-120 120l120 120l120 -120z" />
    <glyph glyph-name="semicolon" unicode=";" horiz-adv-x="569" 
d="M280 680l-120 120l120 120l120 -120zM160 -280l100 240l-100 90l120 120l120 -120z" />
    <glyph glyph-name="less" unicode="&#x3c;" horiz-adv-x="1155" 
d="M1095 135v-152l-1034 507v55l1034 507v-152l-766 -381z" />
    <glyph glyph-name="equal" unicode="=" horiz-adv-x="1155" 
d="M1095 381v-140h-1034v140h1034zM1095 794v-140h-1034v140h1034z" />
    <glyph glyph-name="greater" unicode="&#x3e;" horiz-adv-x="1155" 
d="M18 900v152l1115 -507v-55l-1115 -507v152l847 384z" />
    <glyph glyph-name="question" unicode="?" horiz-adv-x="909" 
d="M849 1058q0 -129 -153 -323q-142 -180 -191 -489q-31 126 -31 179q0 9 1 15q19 118 108 318q77 174 78 289q1 104 -55 191q-54 84 -173 84q-59 0 -120 -33q-71 -38 -72 -93q-1 -22 40 -68t42 -87q1 -34 -24.5 -58t-59.5 -25q-51 -1 -79 44q-25 38 -25 92q-1 135 114 217
q102 72 242 72q156 0 254 -84q104 -88 104 -241zM530 -180l-120 120l120 120l120 -120z" />
    <glyph glyph-name="at" unicode="@" horiz-adv-x="1886" 
d="M1134 556v14h-376v-14h376zM1134 603q-6 126 -37 326q-51 154 -144 259q-101 -97 -158 -259q-39 -112 -37 -326h376zM1033 288v25q66 8 85 32q16 22 16 92v88h-376v-88q0 -74 18.5 -95t83.5 -29v-25h-320v25q66 7 83.5 29t17.5 112v94q8 88 19 161q27 176 68 251
q82 152 224 251q135 -105 212 -251q51 -97 87 -421v-85q0 -76 12 -103q23 6 45 11q132 0 224 171q79 146 79 288q0 225 -179 361q-164 124 -395 124q-269 0 -483 -185q-231 -200 -232 -489q0 -268 194 -434q183 -156 462 -156q94 0 208 28q174 43 297 136l38 -57
q-277 -177 -572 -178q-302 0 -524 176q-241 191 -241 483q0 329 261 547q248 207 582 207q266 0 453 -144q205 -158 205 -416q0 -199 -127 -368q-94 -125 -206 -156v-12h-319z" />
    <glyph glyph-name="A" unicode="A" horiz-adv-x="1479" 
d="M1506 -10h-589v63q120 15 150.5 49.5t30.5 163.5v147h-652v-147q0 -130 30 -164t151 -49v-63h-589v63q124 15 152 50t28 192v169q13 157 33 288q48 315 123 453q85 156 172.5 253.5t237.5 202.5q141 -110 223 -207t163 -249q92 -174 156 -756v-154q0 -157 28 -192
t152 -50v-63zM1098 571q-13 412 -66 570q-91 270 -248 452q-107 -104 -167 -208q-49 -86 -105 -244q-72 -204 -66 -570h652zM1098 488v43h-652v-43h652z" />
    <glyph glyph-name="B" unicode="B" horiz-adv-x="1170" 
d="M793 222q69 47 94 81q42 58 42 150q0 90 -146 243q-115 121 -208 179l-214 -93v-532q0 -74 51 -92q23 -9 118 -9q156 0 263 73zM-44 44q126 8 163 51q34 41 34 171v1094q0 134 -37 174t-160 46v46h574q114 0 185 -24q53 -18 135 -71q86 -56 108 -88q37 -52 37 -158
q0 -166 -262 -309q117 -89 200 -174q200 -203 201 -350q1 -288 -222 -396q-116 -56 -288 -56h-668v44zM647 1058q140 103 140 218q0 101 -37 144q-23 27 -113 73q-51 26 -69 31q-37 11 -113 11q-62 0 -78 -13t-16 -72v-535z" />
    <glyph glyph-name="C" unicode="C" horiz-adv-x="1342" 
d="M986 1615q115 -39 169 -39q57 0 95 52q9 12 17 27h43l-129 -552h-47q3 167 -36 265q-75 188 -321 190q-259 2 -389 -269q-99 -209 -99 -497q0 -332 143 -526t364 -195q157 -1 293 91q80 54 169 156l38 -46q-69 -104 -169 -181q-171 -132 -373 -132q-330 0 -524 253
q-179 233 -179 585q0 357 189 602q198 256 518 256q110 0 228 -40zM751 1655z" />
    <glyph glyph-name="D" unicode="D" horiz-adv-x="1415" 
d="M483 91q240 -1 395 114q237 176 238 599q0 332 -153 523q-167 208 -488 209q-67 0 -89 -15q-29 -20 -29 -82v-1249q0 -65 31 -85q23 -14 95 -14zM-31 44q121 16 152 57q28 37 28 165v1094q0 133 -32.5 171t-147.5 49v46h552q279 0 472 -110q348 -199 348 -708
q0 -402 -251 -629q-78 -70 -166 -109q-160 -70 -386 -70h-569v44zM686 666l-144 144l144 144l144 -144z" />
    <glyph glyph-name="E" unicode="E" horiz-adv-x="1251" 
d="M23 44q121 16 152 57q28 37 28 165v1094q0 124 -29 163q-34 46 -151 57v46h1155l-98 -353h-52q18 162 -20.5 210.5t-251.5 48.5h-278q-44 0 -57 -20q-9 -14 -9 -62v-549h505l-190 -97h-315v-608q0 -74 37 -87t232 -13q219 0 310 58q100 63 175 261h57l-93 -415h-1107v44z
" />
    <glyph glyph-name="F" unicode="F" horiz-adv-x="1103" 
d="M-1 44q128 16 159 68q21 37 21 183v1065q0 124 -29 163q-34 46 -151 57v46h1148l-88 -353h-57q24 170 -21.5 214.5t-248.5 44.5h-280q-42 0 -53 -16t-11 -66v-549h516l-167 -97h-349v-538q0 -136 34 -174q31 -34 151 -48v-44h-574v44z" />
    <glyph glyph-name="G" unicode="G" horiz-adv-x="1479" 
d="M1157 1576q63 0 116 79h45l-123 -517h-47q-15 180 -59 266q-78 152 -302 154q-270 2 -399 -267q-97 -204 -97 -504q0 -281 115 -480q141 -241 402 -241q60 0 144 22q97 27 129 62q18 20 18 62v393q0 140 -33.5 175t-146.5 44v46h522v-46q-73 -4 -101 -30
q-42 -38 -42 -158v-484q0 -65 -228 -131q-194 -56 -288 -56q-300 0 -506 210q-226 230 -227 622q0 341 181 588q198 270 528 270q119 0 233 -39.5t166 -39.5zM725 1655z" />
    <glyph glyph-name="H" unicode="H" horiz-adv-x="1479" 
d="M33 44q128 16 159 68q21 37 21 183v1065q0 130 -33 170t-147 50v46h569v-46q-117 -9 -151 -56q-30 -40 -30 -164v-479h621v479q0 131 -32 170t-148 50v46h569v-46q-117 -9 -151 -56q-29 -40 -29 -164v-1094q0 -134 32 -170.5t148 -51.5v-44h-569v44q128 16 159 68
q21 37 21 183v478h-621v-507q0 -133 34 -172q31 -36 147 -50v-44h-569v44zM1044 829v25h-624l-1 -25h625z" />
    <glyph glyph-name="I" unicode="I" horiz-adv-x="682" 
d="M59 44q131 13 165 50.5t34 171.5v1094q0 129 -35 170q-38 44 -164 50v46h606v-46q-124 -6 -161.5 -45.5t-37.5 -174.5v-1094q0 -142 37 -177q33 -31 162 -45v-44h-606v44z" />
    <glyph glyph-name="J" unicode="J" horiz-adv-x="797" 
d="M110 264q26 -11 46 -26q49 -34 63 -77q33 -101 70 -102q71 -1 71 188v1113q0 129 -32 168q-35 43 -158 52v46h588v-46q-119 -6 -157 -54q-33 -43 -33 -166v-903q0 -197 -72 -325q-90 -160 -272 -161q-82 -1 -139 44q-63 48 -64 127q-1 64 30 93t59 29z" />
    <glyph glyph-name="K" unicode="K" horiz-adv-x="1479" 
d="M1194 252q198 -188 581 -482q31 -32 74 -45q49 -15 53 -17q15 -10 54 -11q58 -2 66 -3v-44h-357l-226 175q-254 203 -398 337q-215 201 -555 591l-55 -43v-444q0 -137 34 -174q31 -34 151 -48v-44h-579v44q126 12 155.5 53.5t29.5 197.5v1065q0 126 -31 165
q-34 44 -154 55v46h584v-46q-121 -6 -158 -53q-32 -41 -32 -167v-504q187 190 298 316q225 254 226 328q1 50 -37 65q-33 13 -103 15v46h536v-40q-108 -12 -177 -62q-43 -31 -134 -137l-424 -492l198 -234q228 -264 380 -409z" />
    <glyph glyph-name="L" unicode="L" horiz-adv-x="1251" 
d="M23 44q121 16 152 57q28 37 28 165v1094q0 124 -29 163q-34 46 -151 57v46h579v-46q-116 -6 -153 -46.5t-37 -157.5v-1180q0 -41 11 -65q16 -32 99 -34q23 -1 96 -1q271 -1 368.5 53.5t186.5 276.5h52l-100 -426h-1102v44z" />
    <glyph glyph-name="M" unicode="M" horiz-adv-x="1711" 
d="M1758 10h-554v25q120 12 152.5 57t32.5 203v1123l-411 -283v-1377l-105 -229l1 1604l-432 288v-1060q0 -205 51 -269q33 -41 141 -57v-25h-601v25q140 20 177 104q22 50 22 222v999q0 135 -38 179q-36 41 -156 50v27h462l433 -308l450 308h375v-27q-110 -9 -145 -53.5
t-35 -175.5v-1094q0 -137 35 -178q31 -36 145 -53v-25z" />
    <glyph glyph-name="N" unicode="N" horiz-adv-x="1470" 
d="M1448 1359q-110 -9 -145 -53q-20 -25 -85 -133v-1417l-154 -261l-1 1703l-621 218v-1055q0 -205 51 -269q33 -41 141 -57v-25h-601v25q140 20 177 104q22 50 22 222v999q0 135 -38 179q-36 41 -156 50v27h463l567 -229l380 -1v-27z" />
    <glyph glyph-name="O" unicode="O" horiz-adv-x="1479" 
d="M1403 812q0 -399 -212 -636q-189 -211 -459 -211q-322 0 -507 272q-164 240 -164 575q0 395 206 632q188 216 465 217q323 0 508 -273q163 -239 163 -576zM1170 812q0 287 -79 483q-112 276 -359 277q-245 1 -358 -277q-81 -199 -81 -483q0 -286 80 -482
q113 -275 359 -276t358 276q80 197 80 482zM732 1661zM730 666l-144 144l144 144l144 -144z" />
    <glyph glyph-name="P" unicode="P" horiz-adv-x="1139" 
d="M504 1535q-57 0 -74.5 -14t-17.5 -68v-641l72 -7q11 0 33 -1q141 0 222 48q147 87 147 328q0 352 -382 355zM33 44q123 14 154 72q21 38 21 179v1065q0 121 -28 161q-33 47 -147 59v46h540q232 0 374 -102q162 -116 162 -338q0 -240 -151 -363q-139 -113 -385 -114
q-55 0 -85 1l-76 3v-447q0 -139 34.5 -174.5t159.5 -47.5v-44h-573v44z" />
    <glyph glyph-name="Q" unicode="Q" horiz-adv-x="1479" 
d="M732 54q246 -1 358 276q80 197 80 482q0 287 -79 483q-112 276 -359 277q-245 1 -358 -277q-81 -199 -81 -483q0 -286 80 -482q113 -275 359 -276zM267 1444q188 216 465 217q272 0 462 -215q208 -236 209 -634q0 -302 -124 -517q-143 -247 -417 -309q122 -213 300 -305
q95 -49 267 -75v-44h-84q-167 0 -295 32q-64 16 -213 109q-42 26 -80 81l-75 109q-30 38 -74 61l-85 40l-26 14q-164 88 -263 216q-173 223 -173 588q0 395 206 632zM730 666l-144 144l144 144l144 -144z" />
    <glyph glyph-name="R" unicode="R" horiz-adv-x="1178" 
d="M723 896q162 79 163 303q0 213 -146 291q-77 41 -207 42q-76 1 -93 -8q-33 -14 -33 -77v-606q222 9 316 55zM23 44q123 14 155 71q21 39 21 180v1065q0 122 -28 161q-34 47 -148 59v46h567q175 0 295 -54q223 -101 224 -376q0 -343 -370 -411l125 -198q146 -221 252 -341
q174 -198 546 -482q33 -29 75 -43q47 -16 52 -19q15 -10 54 -11q58 -2 66 -3v-44h-322q-124 87 -231 170q-258 198 -393 342q-185 197 -442 600l-114 -6v-484q0 -137 34 -174q31 -34 151 -48v-44h-569v44z" />
    <glyph glyph-name="S" unicode="S" horiz-adv-x="1084" 
d="M1085 382q1 -192 -147 -305q-135 -103 -332 -103q-192 0 -326 99q-148 110 -149 295q-1 153 96 270q55 66 221 181q-156 124 -215 202q-88 116 -89 255q-1 178 152 285q136 94 321 94q167 0 287 -88q133 -98 134 -259q0 -54 -103 -110q-158 -85 -159 -86l-2 2
q89 111 90 200q1 111 -71 193q-69 79 -212 81q-105 1 -180 -67t-75 -172q0 -113 84 -210q68 -78 224 -180q238 -155 362 -313q88 -112 89 -264zM898 310q2 125 -76 211q-66 73 -306 247q-105 -70 -151 -169q-47 -102 -47 -199q0 -150 73 -249q82 -110 227 -110q128 0 203 71
t77 198z" />
    <glyph glyph-name="T" unicode="T" horiz-adv-x="1251" 
d="M1112 1292h-50q4 34 4 59q0 49 -16 74l-34 40q-46 59 -216 59h-114l10 -1229q1 -150 26 -187q33 -51 168 -64v-44h-597v44q129 14 162 45q38 36 37 177l-10 1258l-435 2l78 306h49q-2 -23 -2 -41q0 -51 19 -68.5l37 -34.5q40 -60 217 -60l758 -2z" />
    <glyph glyph-name="U" unicode="U" horiz-adv-x="1479" 
d="M1078 1366q0 133 -34 172q-31 36 -147 50v44h569v-44q-128 -16 -159 -68q-21 -37 -21 -183v-153q-18 -169 -40 -306q-53 -329 -115 -446q-80 -152 -161 -247.5t-217 -200.5q-144 100 -230 196.5t-170 251.5q-140 257 -155 736v169q0 146 -21 183q-31 52 -159 68v44h569
v-44q-116 -14 -147 -50q-34 -39 -34 -172v-295q-4 -382 67 -583q57 -162 108 -250q62 -106 174 -214q164 188 256 464q58 173 67 586v292z" />
    <glyph glyph-name="V" unicode="V" horiz-adv-x="1565" 
d="M612 1649v-46q-77 0 -112 -13q-50 -19 -51 -79q-1 -45 87 -269l339 -867l308 939q18 55 31 105q10 37 10 69q1 71 -54 98q-24 12 -104 17v46h443v-42q-72 -14 -102 -43q-49 -47 -98 -191l-479 -1402h-33l-535 1370q-67 172 -109 216q-39 41 -118 50v42h577z" />
    <glyph glyph-name="W" unicode="W" horiz-adv-x="2400" 
d="M1193 558q-22 -77 -47 -124q-80 -152 -161 -247.5t-217 -200.5q-144 100 -230 196.5t-170 251.5q-140 257 -155 736v169q0 146 -21 183q-31 52 -159 68v44h569v-44q-116 -14 -147 -50q-34 -39 -34 -172v-295q-4 -382 67 -583q57 -162 108 -250q62 -106 174 -214
q164 189 256 464q57 170 66 565q-8 76 -10 125l-23 70q-31 36 -147 50v44h569v-44q-120 -15 -150 -53q-18 -23 -30 -61q0 -2 -1 -10v-103q-4 -382 67 -583q57 -162 108 -250q62 -106 174 -214q164 188 256 464q58 173 67 586v292q0 133 -34 172q-31 36 -147 50v44h569v-44
q-128 -16 -159 -68q-21 -37 -21 -183v-153q-18 -169 -40 -306q-53 -329 -115 -446q-80 -152 -161 -247.5t-217 -200.5q-144 100 -230 196.5t-170 251.5q-27 50 -54 124z" />
    <glyph glyph-name="X" unicode="X" horiz-adv-x="1479" 
d="M1481 4h-569v44q116 14 147 50q23 26 26 33q8 20 8 79v132q-26 114 -67 221q-99 258 -256 439q-306 -294 -349 -657v-135q0 -59 8 -79q3 -7 26 -33q31 -36 147 -50v-44h-569v44q120 15 150 53t30 138v9q45 150 115 284q170 322 440 510q325 -251 533 -810v7
q0 -100 30 -138t150 -53v-44zM1481 1590q-120 -15 -150 -53t-30 -138v7q-61 -163 -135 -304q-179 -337 -398 -506q-401 279 -555 794v9q0 100 -30 138t-150 53v44h569v-44q-116 -14 -147 -50q-23 -26 -26 -33q-8 -20 -8 -79v-135q12 -106 51 -210q92 -249 298 -447
q234 269 323 660v132q0 59 -8 79q-3 7 -26 33q-31 36 -147 50v44h569v-44z" />
    <glyph glyph-name="Y" unicode="Y" horiz-adv-x="1479" 
d="M868 670l5 -474q2 -144 39 -178.5t172 -43.5v-44h-626v44q141 9 177 59q29 41 29 192v452l111 328zM1093 1428q0 59 -8 79q-3 7 -26 33q-31 36 -147 50v44h569v-44q-120 -15 -150 -53t-30 -138v7q-18 -84 -40 -161q-53 -184 -115 -301q-67 -126 -161 -197l-217 -151
l-230 147q-100 71 -170 201q-140 257 -155 446v9q0 100 -30 138t-150 53v44h569v-44q-116 -14 -147 -50q-23 -26 -26 -33q-8 -20 -8 -79v-135q-4 -92 67 -293q46 -130 108 -200l174 -164l153 167q62 76 103 197q58 173 67 296v132z" />
    <glyph glyph-name="Z" unicode="Z" horiz-adv-x="1251" 
d="M14 28l898 1504h-472q-83 0 -136 -26q-44 -21 -101 -80q-60 -62 -130 -220h-53l154 420h1011v-28l-889 -1504h526q180 0 261 102q50 63 92 236h48l-50 -432h-1159v28zM627 1626z" />
    <glyph glyph-name="bracketleft" unicode="[" horiz-adv-x="682" 
d="M180 1355h431v-49h-182q-60 0 -81 -38q-12 -21 -12 -55v-1377q0 -44 13 -68q21 -39 87 -39h175v-52h-431v1678z" />
    <glyph glyph-name="backslash" unicode="\" horiz-adv-x="569" 
d="M73 1384l559 -1384h-135l-561 1384h137z" />
    <glyph glyph-name="bracketright" unicode="]" horiz-adv-x="682" 
d="M500 -323h-432v50h183q92 0 92 92v1378q0 47 -19.5 76.5t-79.5 29.5h-176v52h432v-1678z" />
    <glyph glyph-name="asciicircum" unicode="^" horiz-adv-x="961" 
d="M507 1384l386 -865h-137l-275 647l-278 -647h-137l386 865h55z" />
    <glyph glyph-name="underscore" unicode="_" 
d="M0 -256v101h1023v-101h-1023z" />
    <glyph glyph-name="grave" unicode="`" horiz-adv-x="682" 
d="M440 1038h-83l-315 199q-62 39 -62 87q0 64 69 66q40 1 90 -49zM278 938z" />
    <glyph glyph-name="a" unicode="a" horiz-adv-x="1183" 
d="M1193 -8h-471v50q95 12 119.5 40t24.5 131v117h-521v-117q0 -103 24.5 -131t120.5 -40v-50h-472v50q100 12 122 40t22 154v135q10 125 26 230q39 253 99 363q120 219 328 365q196 -152 309 -365q74 -139 125 -605v-123q0 -126 22 -154t122 -40v-50zM866 457
q-6 320 -52 456q-72 216 -199 361q-85 -82 -133 -166q-39 -67 -84 -195q-59 -166 -53 -456h521zM866 390v35h-521v-35h521z" />
    <glyph glyph-name="b" unicode="b" horiz-adv-x="936" 
d="M634 178q56 38 75 65q34 45 34 119q0 72 -117 194q-91 96 -166 144l-171 -74v-426q0 -59 41 -74q19 -7 94 -7q125 0 210 59zM-35 35q101 6 130 41q27 32 27 137v875q0 108 -29.5 140t-127.5 36v37h459q140 0 256 -76q69 -45 87 -71q29 -41 29 -126q0 -133 -210 -247
q320 -244 321 -419q0 -232 -177 -317q-94 -45 -231 -45h-534v35zM518 846q33 24 56 50q56 63 56 125q0 80 -30 115q-18 21 -90 58q-41 21 -56 25q-29 9 -90 9q-50 0 -62.5 -11t-12.5 -57v-428z" />
    <glyph glyph-name="c" unicode="c" horiz-adv-x="1093" 
d="M789 1292q90 -31 135 -31q57 0 90 63h34l-103 -442h-38q3 132 -29 212q-60 151 -256 152q-208 1 -311 -215q-80 -166 -80 -397q0 -224 90 -382q109 -194 316 -195q125 -1 234 73q64 43 135 124l31 -36q-54 -83 -135 -145q-138 -106 -299 -106q-264 0 -419 203
q-143 186 -143 468q0 286 151 481q159 205 414 205q90 0 183 -32zM601 1324z" />
    <glyph glyph-name="d" unicode="d" horiz-adv-x="983" 
d="M944 640q0 -236 -122 -421q-140 -211 -365 -211q-195 0 -318 154t-123 344q0 215 114.5 330.5t276.5 113.5q87 -1 167 -34q52 -21 124 -65q-34 140 -97 246q-70 120 -146 194.5t-171 115.5q-56 24 -305 102q176 -7 356 -65q200 -65 315 -167q294 -260 294 -637zM754 568
q0 134 -32 192q-56 102 -223 101q-182 -2 -255 -185q-45 -113 -45 -251q0 -147 58.5 -255t186.5 -108q162 0 246 182q64 139 64 324z" />
    <glyph glyph-name="e" unicode="e" horiz-adv-x="1001" 
d="M18 35q96 13 122 46q22 30 22 132v875q0 100 -23 131q-26 36 -121 45v37h924l-78 -283h-42q15 130 -16 169t-201 39h-223q-35 0 -45 -17q-7 -11 -7 -49v-439h382l-130 -78h-252v-486q0 -60 29 -69.5t186 -10.5q174 -1 248 46q80 50 140 209h45l-74 -332h-886v35z" />
    <glyph glyph-name="f" unicode="f" horiz-adv-x="911" 
d="M566 643h-236v-430q0 -103 25 -135t123 -43v-35h-460v35q102 13 127 55q17 30 17 146v852q0 100 -23 131q-26 36 -121 45v37h919l-71 -283h-45q19 136 -17.5 172t-198.5 36h-224q-31 0 -43 -13q-8 -14 -8 -53v-439h386z" />
    <glyph glyph-name="g" unicode="g" horiz-adv-x="1183" 
d="M781 1292q88 -31 105 -31q52 0 75 63h36l13 -414h-37q-52 146 -104 213q-95 122 -252 123q-216 1 -319 -214q-78 -162 -78 -402q0 -225 92 -383q112 -194 321 -194q32 0 70.5 6.5t75.5 21.5q58 24 72.5 40t14.5 49v314q0 113 -26.5 140.5t-117.5 34.5v37h418v-37
q-59 -3 -81 -24q-34 -32 -34 -126v-387q0 -52 -182 -105q-155 -45 -230 -45q-240 0 -405 168q-181 185 -182 498q0 273 145 470q159 216 422 216q97 0 188 -32zM567 1324z" />
    <glyph glyph-name="h" unicode="h" horiz-adv-x="1183" 
d="M26 35q102 13 127 55q17 30 17 146v852q0 100 -23 131q-27 36 -121 45v37h456v-37q-94 -8 -121 -45q-24 -31 -24 -131v-383h497v383q0 100 -23 131q-27 36 -121 45v37h455v-37q-94 -8 -121 -45q-23 -31 -23 -131v-875q0 -108 25 -137t119 -41v-35h-455v35q102 13 127 55
q17 30 17 146v382h-497v-405q0 -107 26 -137t119 -41v-35h-456v35zM835 663v20h-499l-1 -20h500z" />
    <glyph glyph-name="i" unicode="i" horiz-adv-x="546" 
d="M47 35q106 11 132.5 40t26.5 138v1075q31 -55 59 -96q68 -97 108 -104v-875q0 -118 33 -145q31 -23 126 -33v-35h-485v35zM264 1453l-115 115l115 115l115 -115z" />
    <glyph glyph-name="j" unicode="j" horiz-adv-x="638" 
d="M94 211q50 0 81.5 -81.5t55.5 -82.5q57 -1 57 151v1110q15 -38 62 -118q32 -43 104 -102v-722q0 -158 -57 -260q-72 -128 -218 -129q-66 -1 -112 35q-49 38 -50 102q-1 97 77 97zM364 1453l-115 115l115 115l115 -115z" />
    <glyph glyph-name="k" unicode="k" horiz-adv-x="1183" 
d="M955 202q159 -151 465 -386q25 -25 59 -36q40 -12 43 -14q12 -8 43 -9q45 -1 53 -2v-35h-286q-157 119 -499 410q-172 160 -444 472l-44 -34v-355q0 -103 25 -135t123 -43v-35h-463v35q101 11 124.5 43.5t23.5 157.5v852q0 104 -28 137q-26 30 -120 39v37h467v-37
q-97 -5 -126 -42q-26 -33 -26 -134v-403q144 145 239 252q179 203 180 263q1 61 -112 64v37h429v-32q-87 -10 -142 -50q-34 -25 -107 -109l-339 -394l158 -188q182 -210 304 -326z" />
    <glyph glyph-name="l" unicode="l" horiz-adv-x="824" 
d="M18 35q96 13 122 46q22 30 22 132v875q0 100 -23 131q-26 36 -121 45v37h464v-37q-93 -5 -122.5 -37t-29.5 -126v-944q0 -35 9 -52t40 -23q25 -5 115 -5q96 -1 102 3l26 32q47 42 124 141h42l-72 -253h-698v35z" />
    <glyph glyph-name="m" unicode="m" horiz-adv-x="1369" 
d="M1406 8h-443v20q95 9 121.5 44.5t26.5 163.5v898l-329 -226v-1102l-84 -183l1 1283l-345 231v-848q0 -165 40 -215q26 -33 113 -46v-20h-481v20q99 15 129.5 59t30.5 202v799q0 110 -31 143q-25 32 -125 40v22h370l346 -247l360 247h300v-22q-89 -7 -116.5 -42.5
t-27.5 -140.5v-875q0 -107 28 -143q27 -29 116 -42v-20z" />
    <glyph glyph-name="n" unicode="n" horiz-adv-x="1176" 
d="M1093 1097q-89 -7 -116 -42l-3 -107v-1143l-123 -209l-1 1362l-496 185v-854q0 -165 40 -215q26 -33 113 -46v-20h-481v20q99 15 129.5 59t30.5 202v809q0 110 -31 143q-25 32 -125 40v22h371l478 -183l214 -1v-22z" />
    <glyph glyph-name="o" unicode="o" horiz-adv-x="1183" 
d="M1122 650q0 -320 -169 -509q-151 -169 -367 -169q-258 0 -406 217q-131 192 -131 461q0 315 165 505q151 173 372 174q257 0 406 -218q130 -192 130 -461zM936 650q0 229 -64 386q-89 221 -286 222q-196 1 -287 -222q-65 -159 -65 -386q0 -229 65 -386q90 -220 287 -221
t286 221q64 157 64 386zM586 1329zM584 533l-115 115l115 115l115 -115z" />
    <glyph glyph-name="p" unicode="p" horiz-adv-x="911" 
d="M403 1228q-46 0 -59.5 -11.5t-13.5 -54.5v-512l57 -6q18 0 27 -1q111 0 177 39q118 70 118 262q0 281 -306 284zM26 35q98 11 123 57q17 31 17 144v852q0 97 -22 129q-27 38 -118 47v37h432q186 0 299 -81q130 -93 130 -271q0 -201 -122 -291t-307 -91q-22 0 -65 1.5
t-63 1.5v-357q0 -106 26 -136.5t129 -41.5v-35h-459v35z" />
    <glyph glyph-name="q" unicode="q" horiz-adv-x="1183" 
d="M586 43q197 -1 286 221q64 157 64 386t-64 386q-89 221 -286 222q-196 1 -287 -222q-65 -159 -65 -386q0 -229 65 -386q90 -220 287 -221zM214 1155q151 173 372 174q218 0 369 -172q167 -190 167 -507q0 -242 -99 -413q-113 -198 -333 -248q96 -169 240 -244
q78 -40 213 -60v-35h-67q-137 0 -236 25q-55 14 -170 87q-34 21 -64.5 65l-59.5 87q-36 46 -128 81l-20 11q-134 74 -211 173q-138 177 -138 471q0 315 165 505zM584 533l-115 115l115 115l115 -115z" />
    <glyph glyph-name="r" unicode="r" horiz-adv-x="941" 
d="M493 717q130 63 131 242q1 170 -117 233q-62 33 -166 34q-60 1 -74 -6q-26 -12 -26 -62v-485q177 8 252 44zM-67 35q99 11 124 57q17 31 17 144v852q0 97 -23 129q-27 38 -118 47v37h454q141 0 236 -43q178 -80 179 -301q1 -273 -296 -329l100 -158q118 -177 202 -273
q140 -159 437 -386q27 -23 60 -34q37 -12 41 -15q12 -8 43 -9q47 -2 53 -3v-35h-257l-185 136q-207 159 -315 274q-148 157 -353 480l-91 -5v-387q0 -118 33 -145q29 -23 115 -33v-35h-456v35z" />
    <glyph glyph-name="s" unicode="s" horiz-adv-x="867" 
d="M880 306q1 -142 -109 -242q-106 -96 -286 -97q-158 -1 -269 83q-122 91 -123 244q-1 128 80 224q48 58 165 137q-111 89 -161 155q-73 98 -74 211q-1 147 126 236q111 78 265 79q138 1 238 -74q110 -83 110 -216q0 -45 -90 -95q-121 -67 -131 -77l-18 16q75 93 76 161
q1 97 -58 153q-58 53 -156 54q-81 1 -136.5 -49t-55.5 -130q0 -87 64 -160q55 -63 177 -142q189 -122 292 -253q73 -93 74 -218zM706 248q1 110 -101 207q-30 28 -193 144q-146 -96 -146 -279q0 -127 63 -201t165 -74q106 0 158.5 57t53.5 146z" />
    <glyph glyph-name="t" unicode="t" horiz-adv-x="881" 
d="M827 749h-40q3 28 3 49q0 38 -12 57l-27 32q-37 47 -173 47h-81v-698q0 -120 20 -150q26 -40 135 -51v-35h-478v35q102 11 130 36q31 29 30 142l-8 721l-350 2l62 245h40q-2 -19 -2 -34q0 -40 15 -54.5l29 -27.5q27 -42 174 -48l48 -2l-2 675q10 -123 70 -230
q25 -45 85 -115l2 -330l404 1z" />
    <glyph glyph-name="u" unicode="u" horiz-adv-x="1060" 
d="M788 1092q0 107 -26 137t-118 41v35h455v-35q-103 -13 -127 -55q-17 -29 -17 -146v-122q-15 -135 -32 -245q-42 -263 -92 -357q-112 -212 -303 -358q-202 141 -320 358q-112 206 -124 589v135q0 117 -17 146q-24 42 -127 55v35h456v-35q-93 -11 -119 -41t-26 -137v-236
q-3 -305 53 -466q45 -129 87 -200q50 -85 139 -171q131 150 205 371q46 138 53 469v233z" />
    <glyph glyph-name="v" unicode="v" horiz-adv-x="1252" 
d="M505 1319v-37q-63 0 -90 -10q-40 -15 -41 -63q-1 -34 70 -215l271 -694l246 751q12 36 30 108q3 16 3 31q1 58 -43 79q-20 10 -83 13v37h354v-33q-57 -12 -81 -35q-40 -38 -79 -153l-383 -1121h-26l-428 1096q-44 112 -61 138q-44 66 -121 75v33h462z" />
    <glyph glyph-name="w" unicode="w" horiz-adv-x="1920" 
d="M954 446q-18 -62 -37 -99q-112 -211 -303 -358q-202 141 -320 358q-112 206 -124 589v135q0 117 -17 146q-24 42 -127 55v35h456v-35q-93 -11 -119 -41t-26 -137v-236q-3 -305 53 -466q45 -129 87 -200q50 -85 139 -171q131 150 205 371q44 131 53 452q-6 57 -8 100
l-19 56q-24 29 -117 40v35h455v-35q-96 -12 -120 -42q-15 -19 -24 -49q0 -2 -1 -8v-83q-3 -305 54 -466q46 -130 86 -200q50 -86 139 -171q131 150 205 371q46 138 54 469v233q0 105 -28 138q-25 29 -117 40v35h455v-35q-103 -13 -127 -55q-17 -29 -17 -146v-122
q-15 -135 -32 -245q-42 -263 -92 -357q-112 -211 -302 -358q-203 141 -320 358q-23 43 -44 99z" />
    <glyph glyph-name="x" unicode="x" horiz-adv-x="1183" 
d="M1185 3h-455v35q93 12 118.5 41.5t25.5 88.5v106q-21 91 -53 177q-79 206 -205 351q-245 -236 -279 -526v-108q0 -59 27 -90q24 -28 118 -40v-35h-456v35q96 12 120 43t24 110v7q36 120 93 228q135 257 351 408q260 -201 427 -648v5q0 -79 24 -110t120 -43v-35z
M1185 1272q-96 -12 -120 -42t-24 -111v6q-49 -130 -109 -243q-143 -270 -318 -405q-320 224 -444 635v7q0 81 -24 111t-120 42v35h456v-35q-93 -11 -119 -41t-26 -89v-108q10 -85 40 -168q74 -199 239 -357q188 215 258 528v105q0 59 -26 89t-118 41v35h455v-35z" />
    <glyph glyph-name="y" unicode="y" horiz-adv-x="1037" 
d="M597 536l4 -379q1 -116 31 -143.5t138 -34.5v-35h-501v35q113 8 142 47q23 32 23 154v362l89 262zM777 1142q0 59 -26 89t-118 41v35h455v-35q-96 -12 -120 -42t-24 -111v6q-15 -67 -32 -129q-42 -147 -92 -241q-53 -100 -129 -157l-174 -121l-184 117q-80 57 -136 161
q-112 206 -124 357v7q0 81 -24 111t-120 42v35h456v-35q-93 -11 -119 -41t-26 -89v-108q-3 -73 53 -234q36 -103 87 -160l139 -131l123 133q50 61 82 158q46 138 53 237v105z" />
    <glyph glyph-name="z" unicode="z" horiz-adv-x="1001" 
d="M11 22l719 1204h-378q-108 0 -190 -85q-47 -49 -104 -176h-42l123 336h809v-23l-711 -1203h421q142 0 208 82q41 51 74 189h38l-40 -346h-927v22zM502 1301z" />
    <glyph glyph-name="braceleft" unicode="{" horiz-adv-x="983" 
d="M127 547q120 12 185 54q97 62 98 204l2 275q1 185 145 252q83 38 298 52v-45q-108 -12 -197.5 -70.5t-89.5 -192.5v-245q0 -162 -96 -231q-64 -47 -250 -84l-35 -7v-5q378 -28 381 -296l3 -282q1 -125 101 -186q56 -34 183 -60v-45q-441 0 -443 301l-2 308
q-1 116 -104 175q-57 32 -179 55v73z" />
    <glyph glyph-name="bar" unicode="|" horiz-adv-x="410" 
d="M274 1398v-1398h-139v1398h139z" />
    <glyph glyph-name="braceright" unicode="}" horiz-adv-x="983" 
d="M855 474q-124 -23 -181 -56q-100 -59 -101 -174l-2 -308q-2 -298 -444 -301v45q124 24 183 60q101 62 102 186l2 282q2 263 382 296v5q-216 42 -281 86q-101 68 -101 236v245q0 142 -119 212q-66 39 -168 51v45q200 0 303 -53q140 -72 141 -251l2 -275q1 -145 105 -208
q57 -35 177 -50v-73z" />
    <glyph glyph-name="asciitilde" unicode="~" horiz-adv-x="1108" 
d="M832 502q73 -1 125 69q28 38 69 140h52q-86 -342 -282 -344q-87 -1 -279 83.5t-248 84.5q-81 0 -139 -87q-29 -44 -55 -121h-47q32 139 75 213q73 126 197 126q80 0 270 -81.5t262 -82.5z" />
    <glyph glyph-name="dagger" unicode="&#x2020;" 
d="M887 1252l-162 -199v77zM303 1053l-162 199l162 -122v-77zM929 862l-180 175l-173 43q17 -245 54 -349q-38 -130 -61 -276q-13 -85 -59 -599q-18 254 -51 599q-23 146 -61 276q17 42 55 349l-174 -43l-180 -175l181 284l203 -3q0 131 -43 247q-9 59 -9 107q0 69 22.5 83
t69.5 14q29 0 53 -15q21 -13 21 -82q0 -48 -9 -107q-43 -116 -43 -247l203 3zM549 -381q4 -64 -35 -64q-34 0 -34 56l30 129z" />
    <glyph glyph-name="cent" unicode="&#xa2;" horiz-adv-x="765" 
d="M421 927zM497 919q20 -3 55 -15q63 -21 95 -21q38 0 63 44h24l-73 -310h-26q2 95 -20 149q-32 78 -128 100l-148 -801q49 -24 107 -25q87 -1 164 51q44 29 94 87l22 -25q-37 -58 -95 -102q-95 -73 -209 -74q-48 0 -97 11l-65 -352l-40 8l66 356q-92 35 -157 119
q-100 130 -100 328q0 201 105 336q112 144 290 144q22 0 33 -1l53 288l40 -8zM447 872h-12q-145 0 -218 -150q-55 -116 -55 -278q0 -200 93 -312q21 -25 47 -44z" />
    <glyph glyph-name="sterling" unicode="&#xa3;" 
d="M171 191q-92 2 -94 -73q-1 -21 10 -40q21 -37 73 -38q111 -1 129 121q-38 28 -118 30zM213 265q43 0 95 -10q0 20 1 25q0 9 1 16q0 59 -10 153q-8 78 -28 221h-225l80 93h136q-10 115 -10 174q0 190 102 314q110 133 295 133q98 0 175 -46q91 -54 92 -145
q1 -43 -26 -74.5t-69 -32.5q-30 -1 -54 16q-42 29 -38 97l2 33q6 94 -116 95q-121 1 -166 -125q-24 -67 -24 -177q0 -94 21 -262h336l-80 -93h-248q0 -17 1 -45q1 -34 1 -45q1 -72 -14 -182q-14 -104 -36 -171q45 -21 114 -41q101 -30 186 -30q133 0 231 92l33 31q4 4 9 6.5
t13 5.5l12 -9q-13 -122 -124 -212q-106 -85 -230 -86q-119 -1 -286 127q-66 -75 -95 -96q-48 -34 -110 -35q-61 -1 -99 38t-39 100q-1 70 63 111q55 36 128 36z" />
    <glyph glyph-name="section" unicode="&#xa7;" 
d="M765 446q1 91 -142 218q-140 124 -234 125q-58 1 -98.5 -40t-41.5 -99q-1 -91 138 -214q78 -69 107 -89q66 -44 128 -45q63 -1 102.5 40t40.5 104zM406 833q5 0 18 -2q-100 81 -139 133q-59 80 -60 178t84 172t207 75q98 1 179 -59q33 -25 33 -55q0 -44 -60 -87
q-55 -39 -95 -39q-20 0 -20 15q0 23 53 76q36 36 36 43q0 31 -56 49q-42 14 -81 14q-164 0 -166 -148q-1 -59 51 -121q28 -34 110 -101l161 -132q86 -70 129 -127q81 -106 81 -206q0 -120 -73 -191q-63 -61 -165 -61q-15 0 -31 1q96 -87 133 -139q55 -78 56 -168
q1 -117 -92 -189q-84 -64 -205 -65q-111 -1 -196 58t-85 143q0 42 40 71.5t86 29.5q80 0 82 -79q1 -36 -33 -67l-21 -19q-4 -4 -11 -12q-2 -5 -4 -13q0 -34 60 -55q44 -15 88 -16q48 -1 94 22q79 39 80 136q1 79 -78 157q-24 23 -144 115l-109 83q-197 150 -197 331
q0 105 70.5 176.5t175.5 73.5q4 0 14 -1z" />
    <glyph glyph-name="bullet" unicode="&#x2022;" horiz-adv-x="717" 
d="M61 680q-1 122 84.5 206t207.5 85q121 1 205 -84t84 -207t-83.5 -207.5t-205.5 -86.5q-123 -1 -207 85t-85 209z" />
    <glyph glyph-name="paragraph" unicode="&#xb6;" horiz-adv-x="928" 
d="M884 1317q-58 -3 -83 -26q-42 -38 -55 -154q-12 -105 -12 -275v-557q0 -239 -62 -368q-117 -243 -485 -231q33 20 61 44q67 59 94 130q24 63 34 231q3 47 5 464q-181 0 -299 104q-124 109 -125 288q-1 107 54.5 197.5t150.5 135.5q116 55 402 55h320v-38zM441 973
q-1 -44 -1 -87v-517q0 -295 -4 -332q-24 -209 -140 -279l2 -12q207 40 272 223q39 109 39 400v382q0 229 7 339q11 177 71 227h-164q-15 0 -40 -44q-20 -36 -26 -58q-13 -44 -14 -154q-1 -33 -2 -88z" />
    <glyph glyph-name="germandbls" unicode="&#xdf;" 
d="M23 -260q70 6 93 25q35 29 35 118v1048q0 179 45 282q81 187 311 188q151 1 254 -80q100 -79 101 -224q1 -151 -125 -247q-68 -51 -152 -75q161 -40 240 -101q133 -102 134 -296q1 -165 -106.5 -282.5t-257.5 -117.5q-82 0 -137 35q-64 42 -65 119q-1 95 90 97
q36 1 60.5 -22t27.5 -61l4 -45q2 -27 14 -44t48 -17q82 -1 112 117q15 60 16 176q2 391 -293 399q-42 1 -43 34q-1 26 46 31q83 9 128 44q82 63 83 216q1 87 -27 161q-47 127 -164 128q-173 1 -173 -256v-1380h-299v30z" />
    <glyph glyph-name="acute" unicode="&#xb4;" horiz-adv-x="682" 
d="M530 1237l-315 -199h-83l301 303q48 49 91 50q27 1 47.5 -19.5t21.5 -47.5q1 -46 -63 -87zM277 938z" />
    <glyph glyph-name="dieresis" unicode="&#xa8;" horiz-adv-x="682" 
d="M490 1331q-42 0 -72 30t-30 72t30 72t72 30t72 -30t30 -72q0 -43 -30 -72.5t-72 -29.5zM82 1535q42 0 72 -30t30 -72q0 -43 -30 -72.5t-72 -29.5q-43 0 -71.5 29.5t-29.5 72.5q-1 42 29 72t72 30z" />
    <glyph glyph-name="AE" unicode="&#xc6;" horiz-adv-x="1993" 
d="M919 488v43h-488v-43h488zM792 1638l1120 -2l-98 -353h-52q18 162 -20.5 210.5t-251.5 48.5h-278q-44 0 -57 -20q-9 -14 -9 -62v-549h505l-190 -97h-315v-608q0 -74 37 -87t232 -13q219 0 310 58q100 63 175 261h57l-93 -415h-1107v44q121 16 152 57q28 37 28 165v1094
q0 130 -33 170q-27 33 -105 44q-121 -117 -182 -203q-71 -102 -120 -240q-72 -204 -66 -570h548v-158h-548v-147q0 -130 30 -164t151 -49v-63h-589v63q124 15 152 50t28 192v169q13 157 33 288q48 315 123 453q79 145 183 245q83 78 250 188z" />
    <glyph glyph-name="Oslash" unicode="&#xd8;" horiz-adv-x="1479" 
d="M741 45q224 -1 338 214q91 170 91 414q0 148 -23.5 248t-73.5 190l-633 -938q119 -127 301 -128zM1023 1182q-65 57 -112 83q-82 45 -186 45q-226 0 -341 -215q-91 -172 -91 -418q0 -141 25 -244q28 -113 70 -187zM1092 1282l150 220h99l-182 -268q92 -73 162 -199
q82 -147 82 -358q0 -327 -206 -524q-189 -181 -474 -182q-179 -1 -351 97l-164 -234h-99l194 282q-108 108 -158 199q-84 153 -84 362q0 329 206 526q188 180 465 181q198 0 360 -102z" />
    <glyph glyph-name="yen" unicode="&#xa5;" horiz-adv-x="1037" 
d="M331 596q-79 58 -134 159q-112 206 -124 357v7q0 81 -24 111t-120 42v35h456v-35q-93 -11 -119 -41t-26 -89v-108q-3 -73 53 -234q43 -124 131 -204h28l71 208l57 -208h20q85 89 124 204q46 138 53 237v105q0 59 -26 89t-118 41v35h455v-35q-96 -12 -120 -42t-24 -111v6
q-15 -67 -32 -129q-42 -147 -92 -241q-53 -101 -131 -159h295v-40h-353q-11 -8 -34 -22l1 -106h386v-40h-386l3 -231q2 -116 31.5 -143.5t137.5 -34.5v-35h-501v35q113 8 142 47q24 33 23 154q0 208 -1 208h-373v40h374v103l-41 25h-333v40h271z" />
    <glyph glyph-name="ordfeminine" unicode="&#xaa;" horiz-adv-x="565" 
d="M485 1060h-177v18q35 4 45 15t10 49v44h-196v-44q0 -38 10 -49t45 -15v-18h-177v18q38 5 47 19q7 11 7 54v51q2 44 7 82q13 91 40 140q46 83 123 137q73 -57 115 -137q28 -52 47 -227v-46q0 -43 7 -54q9 -14 47 -19v-18zM363 1234q-2 62 -20 171q-28 81 -74 135
q-52 -50 -82 -135q-20 -57 -20 -171h196zM363 1209v13h-196v-13h196z" />
    <glyph glyph-name="ordmasculine" unicode="&#xba;" horiz-adv-x="635" 
d="M536 1177q0 -101 -49 -172q-56 -82 -152 -82q-97 0 -153 81q-48 71 -49 173q-1 101 49 173q56 81 153 81q96 0 152 -82q49 -71 49 -172zM466 1177q0 226 -131 228q-132 2 -132 -228q0 -226 132 -228q131 -2 131 228zM335 1431zM334 1133l-43 43l43 43l43 -43z" />
    <glyph glyph-name="ae" unicode="&#xe6;" horiz-adv-x="1594" 
d="M735 390v35h-390v-35h390zM634 1310l896 -1l-79 -283h-41q14 131 -17 169.5t-201 38.5h-222q-35 0 -45 -16q-8 -12 -8 -50v-439h404l-152 -78h-252v-486q0 -60 29 -69.5t186 -10.5q174 -1 248 46q81 50 140 209h46l-75 -332h-885v35q89 12 116.5 39.5t27.5 138.5v875
q0 105 -29 139q-23 24 -82 32q-176 -170 -241 -354q-59 -166 -53 -456h438v-127h-438v-117q0 -103 24.5 -131t120.5 -40v-50h-472v50q100 12 122 40t22 154v135q10 125 26 230q39 253 99 363q64 116 147 196q66 63 200 150z" />
    <glyph glyph-name="oslash" unicode="&#xf8;" 
d="M360 118q91 -91 183 -92q127 -1 187 131q45 98 46 242q1 125 -43 246q-28 76 -46 99zM339 825q-99 -90 -100 -312q-1 -178 78 -329l322 621q-72 72 -163 73q-77 1 -137 -53zM194 817q123 119 297 120q62 0 123 -12q37 -7 75 -22l121 230h81l-135 -261q84 -66 127 -130
q78 -117 79 -281q1 -204 -121 -344q-128 -147 -329 -148q-57 0 -119 16q-38 10 -88 31l-128 -244h-76l147 282q-196 145 -196 410q0 216 142 353z" />
    <glyph glyph-name="questiondown" unicode="&#xbf;" horiz-adv-x="909" 
d="M546 984l-120 -120l-120 120l120 120zM821 -170q1 -135 -114 -217q-102 -72 -242 -72q-156 0 -254 84q-104 88 -104 241q0 129 153 323q142 180 191 489q31 -126 31 -179q0 -9 -1 -15q-19 -118 -108 -318q-77 -174 -78 -289q-1 -104 54 -189.5t174 -85.5q59 0 120 33
q71 38 72 93q1 22 -40 68t-42 87q-1 34 24.5 58t59.5 25q51 1 79 -44q25 -38 25 -92z" />
    <glyph glyph-name="exclamdown" unicode="&#xa1;" horiz-adv-x="682" 
d="M464 864l-120 -120l-120 120l120 120zM439 -344q1 -99 -24 -154l-171 59q-11 27 -23 92q-1 30 5 77l92 784h26l19 -220q9 -110 44 -359q31 -226 32 -279z" />
    <glyph glyph-name="florin" unicode="&#x192;" 
d="M151 -316q0 -22 40 -23q93 -1 135 145q35 121 52 327l26 334q10 89 32 251l7 52h-225l19 64h218q39 220 95 336q102 213 284 214q62 0 112 -36q55 -39 56 -99q1 -95 -91 -98q-78 -2 -80 71q0 19 12 39q14 24 16 34q0 32 -44 32q-90 0 -131 -134q-24 -77 -59 -359h259
l-19 -64h-249q-39 -408 -104 -702q-43 -197 -99 -295q-89 -161 -240 -162q-64 0 -111 35q-51 40 -51 101q0 94 84 96q37 1 62 -23.5t25 -61.5q0 -18 -15.5 -40t-15.5 -34z" />
    <glyph glyph-name="guillemotleft" unicode="&#xab;" 
d="M495 89q-10 9 -39 37l-3 3l-29 29l-223 204l-114 97l45 45q10 7 57 50l113 101q82 74 149 142q20 21 57 55q7 5 13 6q21 0 21 -22q0 -29 -69 -123q-37 -51 -196 -249l145 -187q117 -157 118 -181q0 -9 -6 -16t-15 -7q-11 0 -24 16zM886 89q-10 9 -39 37l-3 3l-29 29
l-223 204l-114 97q38 38 102 95l118 104q76 70 144 139q20 21 57 55q7 5 13 6q21 0 21 -22q0 -28 -68 -121q-47 -65 -197 -251l145 -187q117 -157 118 -181q0 -9 -6 -16t-15 -7q-11 0 -24 16z" />
    <glyph glyph-name="guillemotright" unicode="&#xbb;" 
d="M355 464q-130 159 -183 232q-81 110 -82 140q0 8 6 15t15 7q10 0 70 -61l364 -338l-7 -7l-12 -9l-95 -81l-223 -204q-27 -28 -83 -80l-12 -5q-21 0 -21 23q0 45 263 368zM746 464q-152 190 -197 251q-67 92 -68 121q0 8 6 15t15 7q6 0 21 -14q10 -7 49 -47
q21 -22 364 -338l-7 -7l-12 -9l-95 -81l-223 -204q-27 -28 -83 -80l-12 -5q-21 0 -21 23q0 42 263 368z" />
    <glyph glyph-name="ellipsis" unicode="&#x2026;" horiz-adv-x="2048" 
d="M1706 -24q-48 -1 -81 32.5t-33 81.5q0 49 32.5 82t81.5 34q47 1 80 -33.5t34 -82.5q1 -47 -33 -80t-81 -34zM1137 90q1 -47 -33 -80.5t-81 -33.5q-49 0 -82 32.5t-34 81.5q-1 47 34 81t82 35t80 -34t34 -82zM455 90q1 -47 -33 -80t-81 -34q-48 -1 -81 32.5t-33 81.5
q0 49 32.5 82t81.5 34q45 1 79 -34t35 -82z" />
    <glyph glyph-name="OE" unicode="&#x152;" horiz-adv-x="1932" 
d="M730 666l-144 144l144 144l144 -144zM776 57q56 14 77 35q34 34 34 174v1094q0 129 -33 170q-22 27 -75 38q-5 0 -23 2t-24 2q-245 0 -358 -277q-81 -199 -81 -483q0 -287 80 -482q113 -274 359 -276q20 0 44 3zM1862 1626l-98 -353h-52q18 162 -20.5 210.5t-251.5 48.5
h-278q-44 0 -57 -20q-9 -14 -9 -62v-549h505l-94 -97h-411v-608q0 -74 37 -87t232 -13q219 0 310 58q100 63 175 261h57l-93 -415l-887 -8q-108 -2 -190 -2q-314 0 -483 209q-193 238 -193 613q0 395 206 632q158 182 440 182h1155z" />
    <glyph glyph-name="oe" unicode="&#x153;" horiz-adv-x="1546" 
d="M584 533l-115 115l115 115l115 -115zM682 74q28 28 28 139v875q0 104 -27 136q-18 22 -60 30q-4 0 -18 2t-19 2q-196 0 -287 -222q-65 -159 -65 -386q0 -230 64 -386q91 -219 288 -221q64 -1 96 31zM1490 1301l-79 -283h-41q14 131 -17 169.5t-201 38.5h-222
q-35 0 -45 -16q-8 -12 -8 -50v-439h404l-75 -78h-329v-486q0 -60 29 -69.5t186 -10.5q174 -1 248 46q81 50 140 209h46l-75 -332l-709 -6q-87 -2 -152 -2q-252 0 -387 167q-154 190 -154 491q0 315 165 505q127 146 352 146h924z" />
    <glyph glyph-name="endash" unicode="&#x2013;" 
d="M1023 511v-99h-1028v99h1028z" />
    <glyph glyph-name="emdash" unicode="&#x2014;" horiz-adv-x="2048" 
d="M1801 511v-99h-1560v99h1560z" />
    <glyph glyph-name="quotedblleft" unicode="&#x201c;" horiz-adv-x="909" 
d="M740 1298l-120 -120l-120 120l240 330l-100 -240zM296 1298l-120 -120l-120 120l240 330l-100 -240z" />
    <glyph glyph-name="quotedblright" unicode="&#x201d;" horiz-adv-x="909" 
d="M172 1208l100 240l-100 90l120 120l120 -120zM592 1196l100 240l-100 90l120 120l120 -120z" />
    <glyph glyph-name="quoteleft" unicode="&#x2018;" horiz-adv-x="682" 
d="M380 1294l-120 -120l-120 120l240 342l-100 -252z" />
    <glyph glyph-name="quoteright" unicode="&#x2019;" horiz-adv-x="682" 
d="M256 1208l100 240l-100 90l120 120l120 -120z" />
    <glyph glyph-name="fraction" unicode="&#x2044;" horiz-adv-x="342" 
d="M682 1379l-924 -1394h-100l929 1394h95z" />
    <glyph glyph-name="currency" unicode="&#xa4;" 
d="M481 950q-111 1 -189.5 -78.5t-78.5 -191.5q0 -113 77.5 -190.5t190.5 -77.5q112 0 189.5 78t78.5 190q1 111 -78 190t-190 80zM127 828q17 40 57 96l-118 118l52 53l121 -114q111 83 244 83q90 0 161 -36q37 -19 78 -52l119 119l57 -53l-121 -118q37 -48 56 -89
q31 -66 32 -162q1 -122 -88 -235l121 -119l-57 -56l-119 118q-105 -82 -241 -83q-93 -1 -163 32q-41 19 -79 53l-121 -120l-52 56l118 119q-86 110 -87 237q-1 81 30 153z" />
    <glyph glyph-name="guilsinglleft" unicode="&#x2039;" horiz-adv-x="682" 
d="M535 89q-10 9 -39 37l-3 3l-29 29l-223 204l-114 97q34 34 102 95l118 105q13 11 166 160l25 23q17 15 23 16q9 0 15 -6.5t7 -16.5q0 -28 -95 -158l-145 -182l-26 -31q83 -100 177 -231q85 -118 86 -137q0 -9 -6 -16t-15 -7q-11 0 -24 16z" />
    <glyph glyph-name="guilsinglright" unicode="&#x203a;" horiz-adv-x="682" 
d="M203 274q81 109 147 190q-160 202 -195 249q-69 93 -70 123q0 8 6 15t15 7q6 0 21 -14q9 -6 49 -47q9 -10 364 -338l-7 -7l-12 -9l-95 -81l-223 -204q-28 -31 -83 -80l-12 -5q-21 0 -21 23q0 22 116 178z" />
    <glyph glyph-name="uniF001" unicode="&#xf001;" horiz-adv-x="1056" 
d="M750 721v55q31 -55 59 -96q68 -97 108 -104v-363q0 -118 33 -145q31 -23 126 -33v-35h-485v35q106 11 132.5 40t26.5 138v430h-420v-430q0 -103 25 -135t123 -43v-35h-460v35q102 13 127 55q17 30 17 146v852q0 100 -23 131q-26 36 -121 45v37h919l-71 -283h-45
q19 136 -17.5 172t-198.5 36h-224q-31 0 -43 -13q-8 -14 -8 -53v-439h420z" />
    <glyph glyph-name="uniF002" unicode="&#xf002;" horiz-adv-x="1456" 
d="M746 643h-416v-430q0 -103 25 -135t123 -43v-35h-460v35q102 13 127 55q17 30 17 146v852q0 100 -23 131q-26 36 -121 45v37h919l-71 -283h-45q19 136 -17.5 172t-198.5 36h-224q-31 0 -43 -13q-8 -14 -8 -53v-439h416v23q0 100 -23 131q-26 36 -121 45v37h464v-37
q-93 -5 -122.5 -37t-29.5 -126v-600q0 -35 9 -52t40 -23q25 -5 115 -5q96 -1 102 3l26 32q47 42 124 141h42l-72 -253h-698v35q96 13 122 46q22 30 22 132v430z" />
    <glyph glyph-name="daggerdbl" unicode="&#x2021;" 
d="M453 1080l-174 -43l-180 -175l181 284l203 -3q0 131 -43 247q-9 59 -9 107q0 69 22.5 83t69.5 14q29 0 53 -15q21 -13 21 -82q0 -48 -9 -107q-43 -116 -43 -247l203 3l181 -284l-180 175l-173 43q17 -245 54 -366q-11 -30 -20 -75q-23 -108 -34 -273l173 43l180 175
l-181 -284l-203 3q0 -131 43 -247q9 -59 9 -107q0 -69 -21 -82q-24 -15 -53 -15q-47 0 -69.5 14t-22.5 83q0 48 9 107q43 116 43 247l-203 -3l-181 284l180 -175l174 -43q-20 247 -55 349q17 49 55 365z" />
    <glyph glyph-name="periodcentered" unicode="&#xb7;" horiz-adv-x="512" 
d="M343 679q0 -50 -35 -84t-85 -34t-83.5 34t-33.5 84q0 47 33.5 81.5t80.5 35.5q50 1 86.5 -34.5t36.5 -82.5z" />
    <glyph glyph-name="periodcentered" unicode="&#x2219;" horiz-adv-x="512" 
d="M343 679q0 -50 -35 -84t-85 -34t-83.5 34t-33.5 84q0 47 33.5 81.5t80.5 35.5q50 1 86.5 -34.5t36.5 -82.5z" />
    <glyph glyph-name="quotesinglbase" unicode="&#x201a;" horiz-adv-x="682" 
d="M246 -273l-19 40q165 102 168 215q0 14 -6 20.5t-20 8.5l-68 -7q-30 0 -58 15q-51 27 -52 91q-1 116 117 117q80 1 126 -59q41 -54 42 -136q1 -87 -74 -181q-71 -89 -156 -124z" />
    <glyph glyph-name="quotedblbase" unicode="&#x201e;" horiz-adv-x="909" 
d="M597 -292l-19 40q166 94 169 222q0 19 -28 22q-33 -3 -69 -7q-46 0 -78 30t-32 76q0 116 123 117q74 1 121 -58q43 -54 43 -130q0 -95 -72 -186q-65 -84 -158 -126zM127 -292l-18 40q168 106 168 219q0 10 -5 18q-3 5 -21 7q-33 -3 -70 -7q-109 0 -110 109q-1 52 36 84
q34 29 87 30q71 1 119 -55q44 -53 45 -125q1 -96 -55 -173q-72 -99 -176 -147z" />
    <glyph glyph-name="perthousand" unicode="&#x2030;" horiz-adv-x="2048" 
d="M1295 432q1 -156 -86 -303q-100 -169 -246 -170q-119 -1 -188 84q-64 79 -64 201q0 159 113 292q119 139 275 140q99 1 151 -74q44 -65 45 -170zM546 1140q0 68 -5 82.5t-38 32.5q-52 28 -98 74q-111 -34 -183 -189q-62 -134 -62 -266q0 -151 121 -152q117 -1 197 156
q68 133 68 262zM742 1247q88 0 140 34t189 164h90l-882 -1483h-95l792 1329q-91 -95 -255 -97q-15 0 -46 4q-52 7 -88 25q4 -19 8 -68q1 -186 -98 -338q-97 -148 -241 -149q-116 -1 -182 90q-59 81 -60 201q-1 158 114 290q119 137 275 137q60 0 139.5 -69.5t199.5 -69.5z
M1931 433q0 63 -22 111q-33 72 -108 72q-109 0 -191 -177q-69 -149 -70 -275q-1 -149 121 -150q119 -1 201 156q69 132 69 263zM1979 431q1 -164 -84 -306q-99 -164 -253 -164q-116 0 -185 85q-63 79 -64 198q-1 157 110 291q117 140 271 140q204 0 205 -244zM971 16
q122 -1 205 151q69 128 70 262q1 110 -52 159q-32 30 -75 30q-109 0 -192 -178q-70 -151 -70 -276q0 -60 27 -100q30 -48 87 -48z" />
    <glyph glyph-name="dotlessi" unicode="&#x131;" horiz-adv-x="546" 
d="M47 35q106 11 132.5 40t26.5 138v1075q31 -55 59 -96q68 -97 108 -104v-875q0 -118 33 -145q31 -23 126 -33v-35h-485v35z" />
    <glyph glyph-name="circumflex" unicode="&#x2c6;" horiz-adv-x="682" 
d="M26 1674l256 341h128l256 -341h-71l-249 211l-249 -211h-71z" />
    <glyph glyph-name="tilde" unicode="&#x2dc;" horiz-adv-x="682" 
d="M446 1822q61 -30 98 -30q84 0 118 102h59q-4 -54 -39 -112q-61 -103 -180 -104q-67 -1 -160 47l-47 24q-39 20 -78 21q-51 1 -81 -34q-14 -16 -31 -58h-62q49 204 217 206q58 1 137 -38z" />
    <glyph glyph-name="macron" unicode="&#xaf;" horiz-adv-x="682" 
d="M14 1770h640v-109h-640v109z" />
    <glyph glyph-name="macron" unicode="&#x2c9;" horiz-adv-x="682" 
d="M14 1770h640v-109h-640v109z" />
    <glyph glyph-name="breve" unicode="&#x2d8;" horiz-adv-x="682" 
d="M647 1972q-12 -128 -58 -201q-76 -120 -247 -121q-80 0 -143 40q-119 77 -130 282h62q25 -197 233 -198q107 -1 164 71q29 36 58 127h61zM358 1550z" />
    <glyph glyph-name="dotaccent" unicode="&#x2d9;" horiz-adv-x="682" 
d="M346 1683q-42 0 -72 30t-30 72t30 72t72 30t72 -30t30 -72q0 -43 -30 -72.5t-72 -29.5zM346 1550z" />
    <glyph glyph-name="ring" unicode="&#x2da;" horiz-adv-x="682" 
d="M341 1730q52 0 88 37t37 89q1 51 -36 87.5t-89 37.5t-88.5 -36t-37.5 -89q-1 -53 36 -89.5t90 -36.5zM341 2064q86 1 146.5 -60t61.5 -148t-60 -147.5t-148 -61.5t-147.5 60t-61.5 149q-1 87 60.5 147t148.5 61zM341 1538zM341 1538z" />
    <glyph glyph-name="cedilla" unicode="&#xb8;" horiz-adv-x="682" 
d="M229 0h72l-53 -136l32 6q10 1 30 2q71 0 117 -35q50 -39 51 -108q2 -171 -258 -173q-23 0 -58 5q-61 9 -110 28l28 64l31 -9q45 -13 95 -14q40 -1 70 11q48 19 49 74q1 77 -89 79q-43 1 -78 -10l-14 12z" />
    <glyph glyph-name="hungarumlaut" unicode="&#x2dd;" horiz-adv-x="682" 
d="M757 1861l-315 -199h-83l301 303q29 29 49 38.5t41 11.5q26 0 47.5 -20t21.5 -50q0 -45 -62 -84zM383 2003q16 12 40 13q69 2 71 -71q1 -42 -52 -84l-278 -218h-83l264 322q19 24 38 38z" />
    <glyph glyph-name="ogonek" unicode="&#x2db;" horiz-adv-x="682" 
d="M701 92q-90 -141 -90 -267q0 -54 34.5 -91.5t88.5 -37.5q32 0 70 15q20 8 58 30v-116q-89 -51 -180 -52q-84 -1 -147 53t-64 137q-2 159 187 329h43z" />
    <glyph glyph-name="caron" unicode="&#x2c7;" horiz-adv-x="682" 
d="M678 1979l-256 -341h-128l-256 341h71l249 -211l249 211h71zM358 1538z" />
    <glyph glyph-name="Lslash" unicode="&#x141;" horiz-adv-x="1251" 
d="M23 37q113 12 146.5 40.5t33.5 144.5v304l-199 -138v119l199 137v489q0 109 -34.5 142t-145.5 42v38h579v-38q-110 -6 -146 -33q-44 -34 -44 -137v-391l263 187v-119l-263 -187v-474q0 -60 42 -76q21 -7 97 -7q232 0 269 3q120 12 195 66q86 61 158 206h52l-100 -355
h-1102v37z" />
    <glyph glyph-name="lslash" unicode="&#x142;" horiz-adv-x="569" 
d="M42 28q89 8 121 34q38 31 38 115v496l-171 -128v113l171 128v368q0 70 -11 93q-18 39 -80 40q-15 0 -73 -12v33l325 96q5 0 7.5 -7t2.5 -25v-472l199 152v-114l-199 -152v-613q0 -88 30 -113q27 -23 124 -32v-28h-484v28z" />
    <glyph glyph-name="Eth" unicode="&#xd0;" horiz-adv-x="1479" 
d="M33 37q115 12 145 41q35 32 35 144v422h-180v90h180v399q0 111 -35 145q-32 30 -145 39v38h552q367 0 577 -153q241 -175 241 -529q0 -336 -249 -524q-78 -59 -166 -91q-159 -58 -386 -58h-569v37zM547 76q239 -1 395 95q237 146 238 499q0 298 -175 456
q-167 153 -466 154q-64 0 -85 -10q-33 -16 -33 -71v-465h342v-90h-342v-486q0 -56 37 -72q21 -10 89 -10z" />
    <glyph glyph-name="eth" unicode="&#xf0;" 
d="M341 827q-102 -90 -102 -315q0 -179 80 -332t219 -154q125 -1 187 120q49 95 49 233q0 181 -58 317q-79 182 -236 182q-81 0 -139 -51zM641 902q46 -21 91 -56q-21 91 -69 181q-56 103 -121 148l-206 -114l-45 53l186 105q-120 63 -283 96l19 62q42 -4 89 -12
q101 -17 183 -49q45 -18 93 -41l216 116l45 -50l-188 -107q309 -212 310 -697q0 -223 -110 -384q-126 -184 -339 -184q-181 0 -319.5 132.5t-138.5 357.5q0 195 112 331q120 146 311 147q85 0 164 -35z" />
    <glyph glyph-name="Scaron" unicode="&#x160;" horiz-adv-x="1139" 
d="M1085 382q1 -192 -147 -305q-135 -103 -332 -103q-192 0 -326 99q-148 110 -149 295q-1 153 96 270q55 66 221 181q-156 124 -215 202q-88 116 -89 255q-1 178 152 285q136 94 321 94q167 0 287 -88q133 -98 134 -259q0 -54 -103 -110q-158 -85 -159 -86l-2 2
q89 111 90 200q1 111 -71 193q-69 79 -212 81q-105 1 -180 -67t-75 -172q0 -113 84 -210q68 -78 224 -180q238 -155 362 -313q88 -112 89 -264zM898 310q2 125 -76 211q-66 73 -306 247q-105 -70 -151 -169q-47 -102 -47 -199q0 -150 73 -249q82 -110 227 -110q128 0 203 71
t77 198zM962 2425l-256 -341h-128l-256 341h71l249 -211l249 211h71zM642 1984z" />
    <glyph glyph-name="scaron" unicode="&#x161;" horiz-adv-x="797" 
d="M880 306q1 -142 -109 -242q-106 -96 -286 -97q-158 -1 -269 83q-122 91 -123 244q-1 128 80 224q48 58 165 137q-111 89 -161 155q-73 98 -74 211q-1 147 126 236q111 78 265 79q138 1 238 -74q110 -83 110 -216q0 -45 -90 -95q-121 -67 -131 -77l-18 16q75 93 76 161
q1 97 -58 153q-58 53 -156 54q-81 1 -136.5 -49t-55.5 -130q0 -87 64 -160q55 -63 177 -142q189 -122 292 -253q73 -93 74 -218zM706 248q1 110 -101 207q-30 28 -193 144q-146 -96 -146 -279q0 -127 63 -201t165 -74q106 0 158.5 57t53.5 146zM791 1986l-256 -341h-128
l-256 341h71l249 -211l249 211h71zM471 1545z" />
    <glyph glyph-name="Yacute" unicode="&#xdd;" horiz-adv-x="1479" 
d="M868 670l5 -474q2 -144 39 -178.5t172 -43.5v-44h-626v44q141 9 177 59q29 41 29 192v452l111 328zM1093 1428q0 59 -8 79q-3 7 -26 33q-31 36 -147 50v44h569v-44q-120 -15 -150 -53t-30 -138v7q-18 -84 -40 -161q-53 -184 -115 -301q-67 -126 -161 -197l-217 -151
l-230 147q-100 71 -170 201q-140 257 -155 446v9q0 100 -30 138t-150 53v44h569v-44q-116 -14 -147 -50q-23 -26 -26 -33q-8 -20 -8 -79v-135q-4 -92 67 -293q46 -130 108 -200l174 -164l153 167q62 76 103 197q58 173 67 296v132zM1124 1888l-315 -199h-83l301 303
q48 49 91 50q27 1 47.5 -19.5t21.5 -47.5q1 -46 -63 -87z" />
    <glyph glyph-name="yacute" unicode="&#xfd;" 
d="M597 536l4 -379q1 -116 31 -143.5t138 -34.5v-35h-501v35q113 8 142 47q23 32 23 154v362l89 262zM777 1142q0 59 -26 89t-118 41v35h455v-35q-96 -12 -120 -42t-24 -111v6q-15 -67 -32 -129q-42 -147 -92 -241q-53 -100 -129 -157l-174 -121l-184 117q-80 57 -136 161
q-112 206 -124 357v7q0 81 -24 111t-120 42v35h456v-35q-93 -11 -119 -41t-26 -89v-108q-3 -73 53 -234q36 -103 87 -160l139 -131l123 133q50 61 82 158q46 138 53 237v105zM887 1627l-315 -199h-83l301 303q48 49 91 50q27 1 47.5 -19.5t21.5 -47.5q1 -46 -63 -87z" />
    <glyph glyph-name="Thorn" unicode="&#xde;" horiz-adv-x="1139" 
d="M33 37q114 9 146 52q29 37 29 157v887q0 107 -33.5 140.5t-141.5 43.5v38h564v-38q-103 -3 -139 -26q-47 -31 -48 -125v-19q0 -15 2 -33h159q167 0 304 -45q231 -76 231 -316q0 -118 -61 -212t-168 -139q-85 -36 -212 -47q-60 -5 -253 -7v-84q0 -138 29 -174
q33 -43 165 -53v-37h-573v37zM536 1042q-82 1 -101 -14q-23 -18 -23 -95v-502l72 -3q139 -6 241 43q163 78 164 300q0 269 -353 271z" />
    <glyph glyph-name="thorn" unicode="&#xfe;" 
d="M530 49q171 -1 236 188q33 97 34 236q1 134 -67 235q-77 114 -206 114q-71 0 -133.5 -46t-62.5 -89v-503q50 -134 199 -135zM14 -413q79 9 109.5 37.5t30.5 109.5v1410q0 123 -100 126q-8 0 -16 -0.5t-15 -1.5v35q182 43 301 90l5 -4v-598q71 73 130 110q69 43 163 44
q165 1 264 -138q88 -125 88 -296q0 -212 -115 -370q-120 -165 -309 -165q-59 0 -99 14q-64 22 -120 81v-327q0 -99 32.5 -122.5t145.5 -32.5v-35h-495v33z" />
    <glyph glyph-name="Zcaron" unicode="&#x17d;" horiz-adv-x="1251" 
d="M14 28l898 1504h-472q-83 0 -136 -26q-44 -21 -101 -80q-60 -62 -130 -220h-53l154 420h1011v-28l-889 -1504h526q180 0 261 102q50 63 92 236h48l-50 -432h-1159v28zM627 1626zM1019 2058l-256 -341h-128l-256 341h71l249 -211l249 211h71zM699 1617z" />
    <glyph glyph-name="zcaron" unicode="&#x17e;" horiz-adv-x="909" 
d="M11 22l719 1204h-378q-108 0 -190 -85q-47 -49 -104 -176h-42l123 336h809v-23l-711 -1203h421q142 0 208 82q41 51 74 189h38l-40 -346h-927v22zM502 1301zM848 1979l-256 -341h-128l-256 341h71l249 -211l249 211h71z" />
    <glyph glyph-name="onehalf" unicode="&#xbd;" horiz-adv-x="1536" 
d="M118 545q70 3 98 22t28 70v564q0 59 -41 60q-27 1 -94 -27v17l239 114q1 0 4 1q1 0 2 -1.5l3 -4.5v-723q0 -59 35 -78q20 -10 91 -14v-17h-365v17zM810 11q240 232 252 245q157 175 158 299q1 75 -50.5 128.5t-126.5 54.5q-79 1 -127 -45q-37 -35 -73 -118l-35 10
q65 249 281 251q102 1 171 -58q73 -62 74 -162q1 -94 -57 -187q-39 -63 -206 -226l-121 -118q9 0 93 -1l94 -1q134 -1 165 10q28 10 70 75l24 -10l-67 -168h-519v21zM1090 1379h95l-858 -1394h-100z" />
    <glyph glyph-name="onequarter" unicode="&#xbc;" horiz-adv-x="1536" 
d="M118 545q70 3 98 22t28 70v564q0 59 -41 60q-27 1 -94 -27v17l239 114q1 0 4 1q1 0 2 -1.5l3 -4.5v-723q0 -59 35 -78q20 -10 91 -14v-17h-365v17zM1123 699l-318 -425h318v425zM1166 824h61v-550h138v-80h-138v-204h-102v204h-374v80zM1279 1379l-924 -1394h-100
l930 1394h94z" />
    <glyph glyph-name="uni00B9" unicode="&#xb9;" horiz-adv-x="614" 
d="M144 554q74 7 91 16q35 18 35 77v564q0 29 -7 44t-36 15q-16 0 -29 -3t-63 -23v17l26 11l213 102q1 0 4 1q2 0 5 -5v-723q0 -56 29 -71q24 -13 97 -22v-16h-365v16z" />
    <glyph glyph-name="threequarters" unicode="&#xbe;" horiz-adv-x="1536" 
d="M304 564q75 -1 122.5 51t47.5 128q0 112 -95 161q-62 32 -152 32h-28v23q218 48 219 193q1 133 -153 136q-111 2 -183 -132l-26 5q26 93 96 148t165 56q81 1 140 -41q65 -47 66 -125q1 -65 -47 -119q-26 -30 -71 -57q162 -49 163 -220q1 -145 -111 -225q-99 -70 -250 -70
q-152 0 -154 74q-1 42 50 44q20 1 91.5 -30.5t109.5 -31.5zM1137 699l-317 -425h317v425zM1180 824h62v-550h137v-80h-137v-204h-102v204h-375v80zM1294 1379l-925 -1394h-99l929 1394h95z" />
    <glyph glyph-name="uni00B3" unicode="&#xb3;" horiz-adv-x="614" 
d="M274 573q83 -1 126 60t43 119q2 193 -247 193h-28v24q128 24 184 96q34 44 35 96q1 134 -150 136q-72 1 -128 -51q-29 -27 -57 -80l-26 4q19 91 94 148q72 56 166 56q84 0 142 -41q65 -46 65 -127q0 -104 -119 -173q163 -57 164 -225q1 -144 -115 -222q-100 -68 -251 -69
q-47 0 -91 15q-59 20 -59 59q0 44 48 45q22 1 92.5 -31t111.5 -32z" />
    <glyph glyph-name="uni00B2" unicode="&#xb2;" horiz-adv-x="614" 
d="M9 549q241 232 252 245q157 175 158 299q1 75 -51.5 128.5t-127.5 54.5q-80 1 -133 -54q-28 -29 -65 -108l-35 9q21 111 95.5 180.5t185.5 70.5q99 1 171.5 -63t73.5 -162q1 -96 -53 -183q-31 -51 -210 -225l-121 -118q9 0 93 -1l93 -1q122 -1 138 3q54 12 98 82l23 -10
l-66 -168h-519v21z" />
    <glyph glyph-name="brokenbar" unicode="&#xa6;" horiz-adv-x="410" 
d="M135 0v540h139v-540h-139zM274 858h-139v540h139v-540z" />
    <glyph glyph-name="uni00AD" unicode="&#xad;" horiz-adv-x="1155" 
d="M61 587h1034v-140h-1034v140z" />
    <glyph glyph-name="uni00AD" unicode="&#x2212;" horiz-adv-x="1155" 
d="M61 587h1034v-140h-1034v140z" />
    <glyph glyph-name="multiply" unicode="&#xd7;" horiz-adv-x="1155" 
d="M1069 125l-100 -99l-394 391l-391 -391l-99 99l391 394l-391 391l99 99l391 -391l394 391l100 -99l-394 -391z" />
    <glyph glyph-name="Adieresis" unicode="&#xc4;" horiz-adv-x="1479" 
d="M1491 -10h-589v63q120 15 150.5 49.5t30.5 163.5v147h-652v-147q0 -130 30 -164t151 -49v-63h-589v63q124 15 152 50t28 192v169q13 157 33 288q48 315 123 453q85 156 172.5 253.5t237.5 202.5q141 -110 223 -207t163 -249q92 -174 156 -756v-154q0 -157 28 -192
t152 -50v-63zM1083 571q-13 412 -66 570q-91 270 -248 452q-107 -104 -167 -208q-49 -86 -105 -244q-72 -204 -66 -570h652zM1083 488v43h-652v-43h652zM935 1772q-42 0 -72 30t-30 72t30 72t72 30t72 -30t30 -72q0 -43 -30 -72.5t-72 -29.5zM527 1976q42 0 72 -30t30 -72
q0 -43 -30 -72.5t-72 -29.5q-43 0 -71.5 29.5t-29.5 72.5q-1 42 29 72t72 30z" />
    <glyph glyph-name="Aring" unicode="&#xc5;" horiz-adv-x="1479" 
d="M1491 -10h-589v63q120 15 150.5 49.5t30.5 163.5v147h-652v-147q0 -130 30 -164t151 -49v-63h-589v63q124 15 152 50t28 192v169q13 157 33 288q48 315 123 453q85 156 172.5 253.5t237.5 202.5q141 -110 223 -207t163 -249q92 -174 156 -756v-154q0 -157 28 -192
t152 -50v-63zM1083 571q-13 412 -66 570q-91 270 -248 452q-107 -104 -167 -208q-49 -86 -105 -244q-72 -204 -66 -570h652zM1083 488v43h-652v-43h652zM763 1772q52 0 88 37t37 89q1 51 -36 87.5t-89 37.5t-88.5 -36t-37.5 -89q-1 -53 36 -89.5t90 -36.5zM763 2106
q86 1 146.5 -60t61.5 -148t-60 -147.5t-148 -61.5t-147.5 60t-61.5 149q-1 87 60.5 147t148.5 61zM731 1308z" />
    <glyph glyph-name="Ccedilla" unicode="&#xc7;" horiz-adv-x="1366" 
d="M1117 1313q30 0 60 19q22 16 31 47h43l19 -460h-47q-41 138 -107 221q-125 158 -339 158q-246 0 -377 -204q-111 -175 -111 -434q0 -252 125 -417q139 -183 382 -184q156 -1 293 76q79 44 169 130l38 -38q-68 -86 -169 -151q-169 -109 -373 -110q-46 0 -70 2l-38 -104
l32 6q10 1 30 2q71 0 117 -35q50 -39 51 -108q2 -171 -258 -173q-23 0 -58 5q-61 9 -110 28l28 64l31 -9q45 -13 95 -14q40 -1 70 11q48 19 49 74q1 77 -89 79q-43 1 -78 -10l-14 12l74 179q-273 28 -423 224q-142 184 -142 465q0 298 189 502q198 213 518 213q79 0 206 -33
t153 -33z" />
    <glyph glyph-name="Eacute" unicode="&#xc9;" horiz-adv-x="1251" 
d="M23 44q121 16 152 57q28 37 28 165v1094q0 124 -29 163q-34 46 -151 57v46h1155l-98 -353h-52q18 162 -20.5 210.5t-251.5 48.5h-278q-44 0 -57 -20q-9 -14 -9 -62v-549h505l-190 -97h-315v-608q0 -74 37 -87t232 -13q219 0 310 58q100 63 175 261h57l-93 -415h-1107v44z
M990 1918l-315 -199h-83l301 303q48 49 91 50q27 1 47.5 -19.5t21.5 -47.5q1 -46 -63 -87z" />
    <glyph glyph-name="Ntilde" unicode="&#xd1;" horiz-adv-x="1479" 
d="M1448 1359q-110 -9 -145 -53q-20 -25 -85 -133v-1417l-154 -261l-1 1703l-621 218v-1055q0 -205 51 -269q33 -41 141 -57v-25h-601v25q140 20 177 104q22 50 22 222v999q0 135 -38 179q-36 41 -156 50v27h463l567 -229l380 -1v-27zM882 1827q61 -30 98 -30q84 0 118 102
h59q-4 -54 -39 -112q-61 -103 -180 -104q-67 -1 -160 47l-47 24q-39 20 -78 21q-51 1 -81 -34q-14 -16 -31 -58h-62q49 204 217 206q58 1 137 -38z" />
    <glyph glyph-name="Odieresis" unicode="&#xd6;" horiz-adv-x="1479" 
d="M1403 812q0 -399 -212 -636q-189 -211 -459 -211q-322 0 -507 272q-164 240 -164 575q0 395 206 632q188 216 465 217q323 0 508 -273q163 -239 163 -576zM1170 812q0 287 -79 483q-112 276 -359 277q-245 1 -358 -277q-81 -199 -81 -483q0 -286 80 -482
q113 -275 359 -276t358 276q80 197 80 482zM732 1661zM730 666l-144 144l144 144l144 -144zM936 1777q-42 0 -72 30t-30 72t30 72t72 30t72 -30t30 -72q0 -43 -30 -72.5t-72 -29.5zM528 1981q42 0 72 -30t30 -72q0 -43 -30 -72.5t-72 -29.5q-43 0 -71.5 29.5t-29.5 72.5
q-1 42 29 72t72 30z" />
    <glyph glyph-name="Udieresis" unicode="&#xdc;" horiz-adv-x="1479" 
d="M1093 1366q0 133 -34 172q-31 36 -147 50v44h569v-44q-128 -16 -159 -68q-21 -37 -21 -183v-153q-18 -169 -40 -306q-53 -329 -115 -446q-80 -152 -161 -247.5t-217 -200.5q-144 100 -230 196.5t-170 251.5q-140 257 -155 736v169q0 146 -21 183q-31 52 -159 68v44h569
v-44q-116 -14 -147 -50q-34 -39 -34 -172v-295q-4 -382 67 -583q57 -162 108 -250q62 -106 174 -214q164 188 256 464q58 173 67 586v292zM945 1748q-42 0 -72 30t-30 72t30 72t72 30t72 -30t30 -72q0 -43 -30 -72.5t-72 -29.5zM537 1952q42 0 72 -30t30 -72
q0 -43 -30 -72.5t-72 -29.5q-43 0 -71.5 29.5t-29.5 72.5q-1 42 29 72t72 30z" />
    <glyph glyph-name="aacute" unicode="&#xe1;" horiz-adv-x="1254" 
d="M1193 -8h-471v50q95 12 119.5 40t24.5 131v117h-521v-117q0 -103 24.5 -131t120.5 -40v-50h-472v50q100 12 122 40t22 154v135q10 125 26 230q39 253 99 363q120 219 328 365q196 -152 309 -365q74 -139 125 -605v-123q0 -126 22 -154t122 -40v-50zM866 457
q-6 320 -52 456q-72 216 -199 361q-85 -82 -133 -166q-39 -67 -84 -195q-59 -166 -53 -456h521zM866 390v35h-521v-35h521zM995 1665l-315 -199h-83l301 303q48 49 91 50q27 1 47.5 -19.5t21.5 -47.5q1 -46 -63 -87zM456 948z" />
    <glyph glyph-name="agrave" unicode="&#xe0;" horiz-adv-x="1243" 
d="M1193 -8h-471v50q95 12 119.5 40t24.5 131v117h-521v-117q0 -103 24.5 -131t120.5 -40v-50h-472v50q100 12 122 40t22 154v135q10 125 26 230q39 253 99 363q120 219 328 365q196 -152 309 -365q74 -139 125 -605v-123q0 -126 22 -154t122 -40v-50zM866 457
q-6 320 -52 456q-72 216 -199 361q-85 -82 -133 -166q-39 -67 -84 -195q-59 -166 -53 -456h521zM866 390v35h-521v-35h521zM629 1433h-83l-315 199q-62 39 -62 87q0 64 69 66q40 1 90 -49z" />
    <glyph glyph-name="acircumflex" unicode="&#xe2;" horiz-adv-x="1210" 
d="M1193 -8h-471v50q95 12 119.5 40t24.5 131v117h-521v-117q0 -103 24.5 -131t120.5 -40v-50h-472v50q100 12 122 40t22 154v135q10 125 26 230q39 253 99 363q120 219 328 365q196 -152 309 -365q74 -139 125 -605v-123q0 -126 22 -154t122 -40v-50zM866 457
q-6 320 -52 456q-72 216 -199 361q-85 -82 -133 -166q-39 -67 -84 -195q-59 -166 -53 -456h521zM866 390v35h-521v-35h521zM312 1312l256 341h128l256 -341h-71l-249 211l-249 -211h-71z" />
    <glyph glyph-name="adieresis" unicode="&#xe4;" horiz-adv-x="1243" 
d="M1193 -8h-471v50q95 12 119.5 40t24.5 131v117h-521v-117q0 -103 24.5 -131t120.5 -40v-50h-472v50q100 12 122 40t22 154v135q10 125 26 230q39 253 99 363q120 219 328 365q196 -152 309 -365q74 -139 125 -605v-123q0 -126 22 -154t122 -40v-50zM866 457
q-6 320 -52 456q-72 216 -199 361q-85 -82 -133 -166q-39 -67 -84 -195q-59 -166 -53 -456h521zM866 390v35h-521v-35h521zM825 1407q-42 0 -72 30t-30 72t30 72t72 30t72 -30t30 -72q0 -43 -30 -72.5t-72 -29.5zM417 1611q42 0 72 -30t30 -72q0 -43 -30 -72.5t-72 -29.5
q-43 0 -71.5 29.5t-29.5 72.5q-1 42 29 72t72 30z" />
    <glyph glyph-name="atilde" unicode="&#xe3;" horiz-adv-x="1232" 
d="M1193 -8h-471v50q95 12 119.5 40t24.5 131v117h-521v-117q0 -103 24.5 -131t120.5 -40v-50h-472v50q100 12 122 40t22 154v135q10 125 26 230q39 253 99 363q120 219 328 365q196 -152 309 -365q74 -139 125 -605v-123q0 -126 22 -154t122 -40v-50zM866 457
q-6 320 -52 456q-72 216 -199 361q-85 -82 -133 -166q-39 -67 -84 -195q-59 -166 -53 -456h521zM866 390v35h-521v-35h521zM663 1563q61 -30 98 -30q84 0 118 102h59q-4 -54 -39 -112q-61 -103 -180 -104q-67 -1 -160 47l-47 24q-39 20 -78 21q-51 1 -81 -34
q-14 -16 -31 -58h-62q49 204 217 206q58 1 137 -38z" />
    <glyph glyph-name="aring" unicode="&#xe5;" horiz-adv-x="1243" 
d="M1193 -8h-471v50q95 12 119.5 40t24.5 131v117h-521v-117q0 -103 24.5 -131t120.5 -40v-50h-472v50q100 12 122 40t22 154v135q10 125 26 230q39 253 99 363q120 219 328 365q196 -152 309 -365q74 -139 125 -605v-123q0 -126 22 -154t122 -40v-50zM866 457
q-6 320 -52 456q-72 216 -199 361q-85 -82 -133 -166q-39 -67 -84 -195q-59 -166 -53 -456h521zM866 390v35h-521v-35h521zM610 1437q52 0 88 37t37 89q1 51 -36 87.5t-89 37.5t-88.5 -36t-37.5 -89q-1 -53 36 -89.5t90 -36.5zM610 1771q86 1 146.5 -60t61.5 -148
t-60 -147.5t-148 -61.5t-147.5 60t-61.5 149q-1 87 60.5 147t148.5 61zM456 948z" />
    <glyph glyph-name="ccedilla" unicode="&#xe7;" horiz-adv-x="1090" 
d="M614 1l-46 -117l32 6q9 0 30 2q71 0 117 -35q50 -39 51 -108q2 -171 -258 -173q-23 0 -58 5q-61 9 -110 28l28 64l31 -9q45 -13 95 -14q40 -1 70 11q48 19 49 74q1 77 -89 79q-43 1 -78 -10l-14 12l78 185h72zM769 1312q90 -31 135 -31q57 0 90 63h34l-103 -442h-38
q3 132 -29 212q-60 151 -256 152q-208 1 -311 -215q-80 -166 -80 -397q0 -224 90 -382q109 -194 316 -195q125 -1 234 73q64 43 135 124l31 -36q-54 -83 -135 -145q-138 -106 -299 -106q-264 0 -419 203q-143 186 -143 468q0 286 151 481q159 205 414 205q90 0 183 -32z
M581 1344z" />
    <glyph glyph-name="eacute" unicode="&#xe9;" horiz-adv-x="909" 
d="M18 35q96 13 122 46q22 30 22 132v875q0 100 -23 131q-26 36 -121 45v37h924l-78 -283h-42q15 130 -16 169t-201 39h-223q-35 0 -45 -17q-7 -11 -7 -49v-439h382l-130 -78h-252v-486q0 -60 29 -69.5t186 -10.5q174 -1 248 46q80 50 140 209h45l-74 -332h-886v35z
M829 1597l-315 -199h-83l301 303q48 49 91 50q27 1 47.5 -19.5t21.5 -47.5q1 -46 -63 -87zM456 938z" />
    <glyph glyph-name="egrave" unicode="&#xe8;" horiz-adv-x="909" 
d="M18 35q96 13 122 46q22 30 22 132v875q0 100 -23 131q-26 36 -121 45v37h924l-78 -283h-42q15 130 -16 169t-201 39h-223q-35 0 -45 -17q-7 -11 -7 -49v-439h382l-130 -78h-252v-486q0 -60 29 -69.5t186 -10.5q174 -1 248 46q80 50 140 209h45l-74 -332h-886v35z
M594 1434h-83l-315 199q-62 39 -62 87q0 64 69 66q40 1 90 -49z" />
    <glyph glyph-name="ecircumflex" unicode="&#xea;" horiz-adv-x="909" 
d="M18 35q96 13 122 46q22 30 22 132v875q0 100 -23 131q-26 36 -121 45v37h924l-78 -283h-42q15 130 -16 169t-201 39h-223q-35 0 -45 -17q-7 -11 -7 -49v-439h382l-130 -78h-252v-486q0 -60 29 -69.5t186 -10.5q174 -1 248 46q80 50 140 209h45l-74 -332h-886v35z
M184 1338l256 341h128l256 -341h-71l-249 211l-249 -211h-71z" />
    <glyph glyph-name="edieresis" unicode="&#xeb;" horiz-adv-x="909" 
d="M18 35q96 13 122 46q22 30 22 132v875q0 100 -23 131q-26 36 -121 45v37h924l-78 -283h-42q15 130 -16 169t-201 39h-223q-35 0 -45 -17q-7 -11 -7 -49v-439h382l-130 -78h-252v-486q0 -60 29 -69.5t186 -10.5q174 -1 248 46q80 50 140 209h45l-74 -332h-886v35z
M684 1403q-42 0 -72 30t-30 72t30 72t72 30t72 -30t30 -72q0 -43 -30 -72.5t-72 -29.5zM276 1607q42 0 72 -30t30 -72q0 -43 -30 -72.5t-72 -29.5q-43 0 -71.5 29.5t-29.5 72.5q-1 42 29 72t72 30z" />
    <glyph glyph-name="iacute" unicode="&#xed;" horiz-adv-x="569" 
d="M575 1657l-315 -199h-83l301 303q48 49 91 50q27 1 47.5 -19.5t21.5 -47.5q1 -46 -63 -87zM47 35q106 11 132.5 40t26.5 138v1075q31 -55 59 -96q68 -97 108 -104v-875q0 -118 33 -145q31 -23 126 -33v-35h-485v35z" />
    <glyph glyph-name="igrave" unicode="&#xec;" horiz-adv-x="569" 
d="M388 1458h-83l-315 199q-62 39 -62 87q0 64 69 66q40 1 90 -49zM47 35q106 11 132.5 40t26.5 138v1075q31 -55 59 -96q68 -97 108 -104v-875q0 -118 33 -145q31 -23 126 -33v-35h-485v35z" />
    <glyph glyph-name="icircumflex" unicode="&#xee;" horiz-adv-x="569" 
d="M-34 1314l256 341h128l256 -341h-71l-249 211l-249 -211h-71zM47 35q106 11 132.5 40t26.5 138v1075q31 -55 59 -96q68 -97 108 -104v-875q0 -118 33 -145q31 -23 126 -33v-35h-485v35z" />
    <glyph glyph-name="idieresis" unicode="&#xef;" horiz-adv-x="569" 
d="M490 1427q-42 0 -72 30t-30 72t30 72t72 30t72 -30t30 -72q0 -43 -30 -72.5t-72 -29.5zM82 1631q42 0 72 -30t30 -72q0 -43 -30 -72.5t-72 -29.5q-43 0 -71.5 29.5t-29.5 72.5q-1 42 29 72t72 30zM47 35q106 11 132.5 40t26.5 138v1075q31 -55 59 -96q68 -97 108 -104
v-875q0 -118 33 -145q31 -23 126 -33v-35h-485v35z" />
    <glyph glyph-name="ntilde" unicode="&#xf1;" 
d="M1093 1097q-89 -7 -116 -42l-3 -107v-1143l-123 -209l-1 1362l-496 185v-854q0 -165 40 -215q26 -33 113 -46v-20h-481v20q99 15 129.5 59t30.5 202v809q0 110 -31 143q-25 32 -125 40v22h371l478 -183l214 -1v-22zM613 1586q61 -30 98 -30q84 0 118 102h59
q-4 -54 -39 -112q-61 -103 -180 -104q-67 -1 -160 47l-47 24q-39 20 -78 21q-51 1 -81 -34q-14 -16 -31 -58h-62q49 204 217 206q58 1 137 -38z" />
    <glyph glyph-name="oacute" unicode="&#xf3;" horiz-adv-x="1176" 
d="M1122 650q0 -320 -169 -509q-151 -169 -367 -169q-258 0 -406 217q-131 192 -131 461q0 315 165 505q151 173 372 174q257 0 406 -218q130 -192 130 -461zM936 650q0 229 -64 386q-89 221 -286 222q-196 1 -287 -222q-65 -159 -65 -386q0 -229 65 -386q90 -220 287 -221
t286 221q64 157 64 386zM586 1329zM584 533l-115 115l115 115l115 -115zM862 1657l-315 -199h-83l301 303q48 49 91 50q27 1 47.5 -19.5t21.5 -47.5q1 -46 -63 -87z" />
    <glyph glyph-name="ograve" unicode="&#xf2;" horiz-adv-x="1176" 
d="M1122 650q0 -320 -169 -509q-151 -169 -367 -169q-258 0 -406 217q-131 192 -131 461q0 315 165 505q151 173 372 174q257 0 406 -218q130 -192 130 -461zM936 650q0 229 -64 386q-89 221 -286 222q-196 1 -287 -222q-65 -159 -65 -386q0 -229 65 -386q90 -220 287 -221
t286 221q64 157 64 386zM586 1329zM584 533l-115 115l115 115l115 -115zM627 1470h-83l-315 199q-62 39 -62 87q0 64 69 66q40 1 90 -49z" />
    <glyph glyph-name="ocircumflex" unicode="&#xf4;" horiz-adv-x="1176" 
d="M1122 650q0 -320 -169 -509q-151 -169 -367 -169q-258 0 -406 217q-131 192 -131 461q0 315 165 505q151 173 372 174q257 0 406 -218q130 -192 130 -461zM936 650q0 229 -64 386q-89 221 -286 222q-196 1 -287 -222q-65 -159 -65 -386q0 -229 65 -386q90 -220 287 -221
t286 221q64 157 64 386zM586 1329zM584 533l-115 115l115 115l115 -115zM277 1314l256 341h128l256 -341h-71l-249 211l-249 -211h-71z" />
    <glyph glyph-name="odieresis" unicode="&#xf6;" horiz-adv-x="1176" 
d="M1122 650q0 -320 -169 -509q-151 -169 -367 -169q-258 0 -406 217q-131 192 -131 461q0 315 165 505q151 173 372 174q257 0 406 -218q130 -192 130 -461zM936 650q0 229 -64 386q-89 221 -286 222q-196 1 -287 -222q-65 -159 -65 -386q0 -229 65 -386q90 -220 287 -221
t286 221q64 157 64 386zM586 1329zM584 533l-115 115l115 115l115 -115zM777 1439q-42 0 -72 30t-30 72t30 72t72 30t72 -30t30 -72q0 -43 -30 -72.5t-72 -29.5zM369 1643q42 0 72 -30t30 -72q0 -43 -30 -72.5t-72 -29.5q-43 0 -71.5 29.5t-29.5 72.5q-1 42 29 72t72 30z
" />
    <glyph glyph-name="otilde" unicode="&#xf5;" horiz-adv-x="1176" 
d="M1122 650q0 -320 -169 -509q-151 -169 -367 -169q-258 0 -406 217q-131 192 -131 461q0 315 165 505q151 173 372 174q257 0 406 -218q130 -192 130 -461zM936 650q0 229 -64 386q-89 221 -286 222q-196 1 -287 -222q-65 -159 -65 -386q0 -229 65 -386q90 -220 287 -221
t286 221q64 157 64 386zM586 1329zM584 533l-115 115l115 115l115 -115zM673 1582q61 -30 98 -30q84 0 118 102h59q-4 -54 -39 -112q-61 -103 -180 -104q-67 -1 -160 47l-47 24q-39 20 -78 21q-51 1 -81 -34q-14 -16 -31 -58h-62q49 204 217 206q58 1 137 -38z" />
    <glyph glyph-name="uacute" unicode="&#xfa;" 
d="M788 1092q0 107 -26 137t-118 41v35h455v-35q-103 -13 -127 -55q-17 -29 -17 -146v-122q-15 -135 -32 -245q-42 -263 -92 -357q-112 -212 -303 -358q-202 141 -320 358q-112 206 -124 589v135q0 117 -17 146q-24 42 -127 55v35h456v-35q-93 -11 -119 -41t-26 -137v-236
q-3 -305 53 -466q45 -129 87 -200q50 -85 139 -171q131 150 205 371q46 138 53 469v233zM886 1669l-315 -199h-83l301 303q48 49 91 50q27 1 47.5 -19.5t21.5 -47.5q1 -46 -63 -87z" />
    <glyph glyph-name="ugrave" unicode="&#xf9;" 
d="M788 1092q0 107 -26 137t-118 41v35h455v-35q-103 -13 -127 -55q-17 -29 -17 -146v-122q-15 -135 -32 -245q-42 -263 -92 -357q-112 -212 -303 -358q-202 141 -320 358q-112 206 -124 589v135q0 117 -17 146q-24 42 -127 55v35h456v-35q-93 -11 -119 -41t-26 -137v-236
q-3 -305 53 -466q45 -129 87 -200q50 -85 139 -171q131 150 205 371q46 138 53 469v233zM579 1470h-83l-315 199q-62 39 -62 87q0 64 69 66q40 1 90 -49z" />
    <glyph glyph-name="ucircumflex" unicode="&#xfb;" 
d="M788 1092q0 107 -26 137t-118 41v35h455v-35q-103 -13 -127 -55q-17 -29 -17 -146v-122q-15 -135 -32 -245q-42 -263 -92 -357q-112 -212 -303 -358q-202 141 -320 358q-112 206 -124 589v135q0 117 -17 146q-24 42 -127 55v35h456v-35q-93 -11 -119 -41t-26 -137v-236
q-3 -305 53 -466q45 -129 87 -200q50 -85 139 -171q131 150 205 371q46 138 53 469v233zM193 1386l256 341h128l256 -341h-71l-249 211l-249 -211h-71z" />
    <glyph glyph-name="udieresis" unicode="&#xfc;" 
d="M788 1092q0 107 -26 137t-118 41v35h455v-35q-103 -13 -127 -55q-17 -29 -17 -146v-122q-15 -135 -32 -245q-42 -263 -92 -357q-112 -212 -303 -358q-202 141 -320 358q-112 206 -124 589v135q0 117 -17 146q-24 42 -127 55v35h456v-35q-93 -11 -119 -41t-26 -137v-236
q-3 -305 53 -466q45 -129 87 -200q50 -85 139 -171q131 150 205 371q46 138 53 469v233zM705 1439q-42 0 -72 30t-30 72t30 72t72 30t72 -30t30 -72q0 -43 -30 -72.5t-72 -29.5zM297 1643q42 0 72 -30t30 -72q0 -43 -30 -72.5t-72 -29.5q-43 0 -71.5 29.5t-29.5 72.5
q-1 42 29 72t72 30z" />
    <glyph glyph-name="degree" unicode="&#xb0;" horiz-adv-x="819" 
d="M379 1374q122 1 206 -84t85 -207t-84 -206.5t-207 -85.5q-123 -1 -207 84t-85 208q-1 122 84.5 206t207.5 85zM379 891q80 -1 135.5 55t56.5 137q1 77 -56 136q-55 55 -136 56q-80 1 -135.5 -55t-56.5 -137q-1 -80 55 -135.5t137 -56.5z" />
    <glyph glyph-name="registered" unicode="&#xae;" horiz-adv-x="1556" 
d="M828 724q91 44 92 169q1 119 -82 163q-43 23 -116 24q-46 1 -60 -8q-10 -9 -10 -39v-340q125 6 176 31zM1126 162q-104 85 -164 148q-103 110 -247 335l-63 -3v-271q0 -72 16 -93q18 -25 87 -31v-25h-319v25q69 6 87 39q12 22 12 101v597q0 69 -18.5 93t-80.5 30v26h318
q98 0 165 -30q124 -56 125 -211q1 -103 -56 -158.5t-151 -71.5q59 -97 211 -302q54 -61 147 -142q7 6 19 18q183 183 184 444q0 262 -183.5 445t-444.5 183q-262 0 -445 -183.5t-183 -444.5q0 -262 183.5 -445t444.5 -183q203 0 356 110zM1254 168l100 -78q18 -18 41 -25
q29 -9 30 -10q22 -2 67 -8v-24h-180q-27 18 -123 90q-180 -137 -419 -137q-295 0 -499.5 205.5t-204.5 498.5q0 295 205.5 499.5t498.5 204.5q295 0 499.5 -205.5t204.5 -498.5q0 -292 -206 -498z" />
    <glyph glyph-name="copyright" unicode="&#xa9;" horiz-adv-x="1556" 
d="M770 52q262 0 445 183.5t183 444.5q0 262 -183.5 445t-444.5 183q-262 0 -445 -183.5t-183 -444.5q0 -262 183.5 -445t444.5 -183zM770 1384q295 0 499.5 -205.5t204.5 -498.5q0 -295 -205.5 -499.5t-498.5 -204.5q-295 0 -499.5 205.5t-204.5 498.5q0 295 205.5 499.5
t498.5 204.5zM877 1106q61 -21 94 -21q17 0 34 10t29 34h24l-72 -310h-27q3 93 -20 149q-43 105 -179 106q-145 1 -218 -150q-55 -116 -56 -278q-1 -156 63 -267q77 -136 222 -137q86 -1 163 51q43 29 95 87l21 -25q-38 -59 -94 -102q-96 -73 -209 -74q-189 -1 -297 145
q-97 131 -97 325q0 199 106 336q112 144 290 144q61 0 128 -23zM745 1129z" />
    <glyph glyph-name="trademark" unicode="&#x2122;" horiz-adv-x="1670" 
d="M613 1424h-25q5 51 -23 87q-23 29 -108 29h-57v-614q0 -75 13 -94q16 -26 84 -32v-22h-299v22q66 8 83 26t17 85v629l-218 1l39 153h25q-4 -40 6 -53q11 -9 21 -19q19 -30 108 -30l379 -1zM1576 778h-277v13q64 6 80 36q12 21 12 94v561l-205 -141v-689l-53 -115l1 803
l-216 144v-530q0 -105 25 -135q17 -21 71 -28v-13h-301v13q70 10 89 52q11 25 11 111v499q0 68 -18.5 89.5t-78.5 25.5v13h231l216 -154l225 154h188v-13q-55 -4 -72.5 -26.5t-17.5 -88.5v-547q0 -64 14 -84q16 -23 76 -31v-13z" />
    <glyph glyph-name="notequal" unicode="&#x2260;" horiz-adv-x="1124" 
d="M45 654v140h597l147 265h152l-150 -265h287v-140h-363l-154 -273h517v-140h-595l-149 -265h-152l149 265h-286v140h365l151 273h-516z" />
    <glyph glyph-name="infinity" unicode="&#x221e;" horiz-adv-x="1460" 
d="M1313 665q1 108 -70.5 189.5t-164.5 81.5q-91 0 -161 -81q-29 -34 -83 -123q-60 -99 -64 -128q0 -11 32 -59q60 -89 150 -120q40 -14 90 -14q109 -1 189.5 72.5t81.5 181.5zM403 910q-115 1 -186.5 -69t-72.5 -185q-1 -101 61 -180q65 -84 164 -85q78 -1 132 38
q29 21 66 71q23 31 67 107q51 87 53 106q0 68 -110 135q-100 62 -174 62zM1353 656q1 -132 -82 -243q-89 -121 -217 -122q-204 -1 -303 273q-51 -109 -104 -167q-97 -105 -228 -106q-138 -1 -231 112q-86 106 -87 247q-1 151 74 257q85 119 230 120q168 1 263 -186l43 -85
q58 116 109 172q90 99 214 99q149 0 238 -114q80 -103 81 -257z" />
    <glyph glyph-name="plusminus" unicode="&#xb1;" horiz-adv-x="1124" 
d="M47 0v135h1033v-135h-1033zM1223 689l-143 -132h-445v-339h-140v339h-448l143 132h305v346h140v-346h588z" />
    <glyph glyph-name="lessequal" unicode="&#x2264;" horiz-adv-x="1124" 
d="M1080 206l-1033 396v54l1033 396v-152l-727 -270l727 -273v-151zM47 0v135h1033v-135h-1033z" />
    <glyph glyph-name="greaterequal" unicode="&#x2265;" horiz-adv-x="1124" 
d="M42 135h1034v-135h-1034v135zM42 206v151l728 273l-728 270v152l1034 -396v-54z" />
    <glyph glyph-name="uni00B5" unicode="&#xb5;" horiz-adv-x="1180" 
d="M-150 -389q84 0 122 75q14 26 45 152l26 111l51 212l140 561q2 12 5 36q0 46 -41 57q-12 4 -80 5v28l306 59q5 0 8.5 -4t3.5 -10l-3 -14l-185 -715q-2 -9 -2.5 -16t-1.5 -15q0 -41 44 -42q105 -2 307 323q61 98 114 225q24 56 92 245h151l-189 -709q-9 -34 -13 -65
q0 -17 8 -23.5t19 -8.5q22 0 71 47q7 6 32 37l8 10l55 67l28 -19q-43 -72 -96 -131q-99 -111 -184 -111q-98 0 -100 99q-1 61 67 302l24 85l-9 2q-74 -132 -147 -240q-164 -243 -264 -244q-39 0 -61 22l-107 -426h-251z" />
    <glyph glyph-name="uni00B5" unicode="&#x3bc;" horiz-adv-x="1180" 
d="M-150 -389q84 0 122 75q14 26 45 152l26 111l51 212l140 561q2 12 5 36q0 46 -41 57q-12 4 -80 5v28l306 59q5 0 8.5 -4t3.5 -10l-3 -14l-185 -715q-2 -9 -2.5 -16t-1.5 -15q0 -41 44 -42q105 -2 307 323q61 98 114 225q24 56 92 245h151l-189 -709q-9 -34 -13 -65
q0 -17 8 -23.5t19 -8.5q22 0 71 47q7 6 32 37l8 10l55 67l28 -19q-43 -72 -96 -131q-99 -111 -184 -111q-98 0 -100 99q-1 61 67 302l24 85l-9 2q-74 -132 -147 -240q-164 -243 -264 -244q-39 0 -61 22l-107 -426h-251z" />
    <glyph glyph-name="partialdiff" unicode="&#x2202;" horiz-adv-x="1012" 
d="M518 753q-151 1 -215 -208q-36 -118 -36 -260q0 -103 39 -171q49 -83 144 -84q133 -1 207 174q57 135 58 289q1 259 -197 260zM678 743q39 -43 73 -132q18 108 22 146q6 57 6 140q0 166 -14 239q-31 166 -131 167q-42 1 -76 -32q-9 -8 -18 -20l-31 -38q-30 -37 -42 -46
q-23 -17 -58 -18q-84 -2 -85 81q-1 75 80 114q63 30 147 30q200 1 296 -210q72 -158 72 -386q0 -285 -107 -509q-134 -280 -379 -281q-154 0 -247 114q-86 106 -87 263q-1 170 104 308q113 150 278 151q122 1 197 -81z" />
    <glyph glyph-name="summation" unicode="&#x2211;" horiz-adv-x="1460" 
d="M1125 981q-30 155 -104.5 224.5t-257.5 69.5h-453l550 -663v-21l-609 -647h704q106 0 138 41q26 32 37 146h40v-381h-1147v56l667 708l-653 787v54h1124v-374h-36z" />
    <glyph glyph-name="product" unicode="&#x220f;" horiz-adv-x="1686" 
d="M976 -250v40q142 0 182.5 41.5t40.5 183.5v1151q0 69 -33 89q-24 15 -100 15h-427q-76 0 -100 -15q-32 -20 -32 -89v-1151q0 -146 38.5 -185t184.5 -40v-40h-643v40q132 0 171 47q35 42 35 178v1087q0 134 -34 172q-37 39 -167 41v40h1519v-40q-128 0 -163.5 -40.5
t-35.5 -172.5v-1087q0 -136 34 -177q39 -47 170 -48v-40h-640z" />
    <glyph glyph-name="pi" unicode="&#x3c0;" horiz-adv-x="1124" 
d="M106 260q6 -51 19 -77q21 -42 72 -42q78 0 118 122q45 135 52 404q2 72 2 138h-106q-75 0 -112 -47q-20 -25 -26 -57h-50q0 51 25 110q26 63 63 93q64 51 284 53q60 1 171 -4q118 -5 172 -5h217q62 0 87 11q21 9 24 41h43q0 -122 -55 -167q-34 -28 -104 -28h-111v-585
q0 -73 11 -104q20 -55 79 -56q67 -1 98 108q13 47 20 144h48q-7 -151 -36 -217q-49 -114 -183 -114q-136 0 -186 108q-27 58 -27 155v561h-286v-187q0 -207 -35 -407q-40 -230 -193 -230q-93 0 -125 91q-17 48 -20 188h50z" />
    <glyph glyph-name="integral" unicode="&#x222b;" horiz-adv-x="561" 
d="M135 -145q53 1 89 -65.5t66 -66.5q64 0 90 117q14 65 20 214l31 815q10 271 64 423q91 256 303 257q177 1 179 -125q1 -46 -25 -75.5t-77 -30.5q-60 -1 -94.5 65.5t-61.5 66.5q-94 0 -101 -206l-28 -806q-12 -358 -63 -523q-90 -294 -328 -294q-68 0 -114 29
q-55 34 -55 98q0 105 105 107z" />
    <glyph glyph-name="Omega" unicode="&#x3a9;" horiz-adv-x="1573" 
d="M1023 310v-126h306q107 0 130 94q5 24 8 60h42v-338h-557v365q176 30 265 166q80 122 81 309q1 169 -97.5 313.5t-357.5 144.5q-203 0 -322 -131q-115 -126 -116 -331q-1 -185 82 -307q92 -134 266 -164v-365h-559v338h45q0 -60 19 -95q32 -59 116 -59h306v126
q-219 18 -360 156q-147 144 -147 359q0 221 150 374q180 184 527 185q290 0 473 -134q208 -151 208 -428q0 -215 -148 -357q-142 -136 -360 -155z" />
    <glyph glyph-name="Omega" unicode="&#x2126;" horiz-adv-x="1573" 
d="M1023 310v-126h306q107 0 130 94q5 24 8 60h42v-338h-557v365q176 30 265 166q80 122 81 309q1 169 -97.5 313.5t-357.5 144.5q-203 0 -322 -131q-115 -126 -116 -331q-1 -185 82 -307q92 -134 266 -164v-365h-559v338h45q0 -60 19 -95q32 -59 116 -59h306v126
q-219 18 -360 156q-147 144 -147 359q0 221 150 374q180 184 527 185q290 0 473 -134q208 -151 208 -428q0 -215 -148 -357q-142 -136 -360 -155z" />
    <glyph glyph-name="logicalnot" unicode="&#xac;" horiz-adv-x="1155" 
d="M61 794h1034v-553h-143v413h-891v140z" />
    <glyph glyph-name="radical" unicode="&#x221a;" horiz-adv-x="1124" 
d="M549 -38l-348 827l-194 -119l-29 60l344 206l284 -707l643 1676h78l-735 -1943h-43z" />
    <glyph glyph-name="approxequal" unicode="&#x2248;" horiz-adv-x="1124" 
d="M40 756q132 120 271 121q86 1 255.5 -74.5t240.5 -75.5q153 0 276 145v-171q-138 -113 -273 -114q-91 -1 -259.5 74.5t-242.5 75.5q-87 0 -161 -48q-41 -27 -107 -97v164zM40 334q132 120 271 121q86 1 255.5 -74.5t240.5 -75.5q153 0 276 145v-171q-135 -114 -273 -114
q-91 0 -259 75t-243 75q-87 0 -159 -47q-47 -31 -109 -98v164z" />
    <glyph glyph-name="approxequal" unicode="&#x22f2;" horiz-adv-x="1124" 
d="M40 756q132 120 271 121q86 1 255.5 -74.5t240.5 -75.5q153 0 276 145v-171q-138 -113 -273 -114q-91 -1 -259.5 74.5t-242.5 75.5q-87 0 -161 -48q-41 -27 -107 -97v164zM40 334q132 120 271 121q86 1 255.5 -74.5t240.5 -75.5q153 0 276 145v-171q-135 -114 -273 -114
q-91 0 -259 75t-243 75q-87 0 -159 -47q-47 -31 -109 -98v164z" />
    <glyph glyph-name="Delta" unicode="&#x394;" horiz-adv-x="1253" 
d="M1142 92l-412 984l-418 -984h830zM1422 0h-1252l605 1396h40z" />
    <glyph glyph-name="Delta" unicode="&#x2206;" horiz-adv-x="1253" 
d="M1142 92l-412 984l-418 -984h830zM1422 0h-1252l605 1396h40z" />
    <glyph glyph-name="uni00A0" unicode="&#xa0;" horiz-adv-x="500" 
 />
    <glyph glyph-name="Agrave" unicode="&#xc0;" horiz-adv-x="1479" 
d="M1491 -10h-589v63q120 15 150.5 49.5t30.5 163.5v147h-652v-147q0 -130 30 -164t151 -49v-63h-589v63q124 15 152 50t28 192v169q13 157 33 288q48 315 123 453q85 156 172.5 253.5t237.5 202.5q141 -110 223 -207t163 -249q92 -174 156 -756v-154q0 -157 28 -192
t152 -50v-63zM1083 571q-13 412 -66 570q-91 270 -248 452q-107 -104 -167 -208q-49 -86 -105 -244q-72 -204 -66 -570h652zM1083 488v43h-652v-43h652zM785 1779h-83l-315 199q-62 39 -62 87q0 64 69 66q40 1 90 -49zM731 1379z" />
    <glyph glyph-name="Atilde" unicode="&#xc3;" horiz-adv-x="1479" 
d="M1491 -10h-589v63q120 15 150.5 49.5t30.5 163.5v147h-652v-147q0 -130 30 -164t151 -49v-63h-589v63q124 15 152 50t28 192v169q13 157 33 288q48 315 123 453q85 156 172.5 253.5t237.5 202.5q141 -110 223 -207t163 -249q92 -174 156 -756v-154q0 -157 28 -192
t152 -50v-63zM1083 571q-13 412 -66 570q-91 270 -248 452q-107 -104 -167 -208q-49 -86 -105 -244q-72 -204 -66 -570h652zM1083 488v43h-652v-43h652zM843 1855q61 -30 98 -30q84 0 118 102h59q-4 -54 -39 -112q-61 -103 -180 -104q-67 -1 -160 47l-47 24q-39 20 -78 21
q-51 1 -81 -34q-14 -16 -31 -58h-62q49 204 217 206q58 1 137 -38z" />
    <glyph glyph-name="Otilde" unicode="&#xd5;" horiz-adv-x="1479" 
d="M1403 812q0 -399 -212 -636q-189 -211 -459 -211q-322 0 -507 272q-164 240 -164 575q0 395 206 632q188 216 465 217q323 0 508 -273q163 -239 163 -576zM1170 812q0 287 -79 483q-112 276 -359 277q-245 1 -358 -277q-81 -199 -81 -483q0 -286 80 -482
q113 -275 359 -276t358 276q80 197 80 482zM732 1661zM730 666l-144 144l144 144l144 -144zM772 1860q61 -30 98 -30q84 0 118 102h59q-4 -54 -39 -112q-61 -103 -180 -104q-67 -1 -160 47l-47 24q-39 20 -78 21q-51 1 -81 -34q-14 -16 -31 -58h-62q49 204 217 206
q58 1 137 -38z" />
    <glyph glyph-name="divide" unicode="&#xf7;" horiz-adv-x="1124" 
d="M675 149q0 -46 -32.5 -79t-78.5 -33t-79 33t-33 79q0 47 32.5 79t79.5 32q45 0 78 -33t33 -78zM1080 587v-140h-1033v140h1033zM675 886q0 -47 -32 -78.5t-79 -32.5q-48 -1 -79.5 31t-32.5 80q-1 46 32 78.5t80 32.5q45 0 78 -33t33 -78z" />
    <glyph glyph-name="lozenge" unicode="&#x25ca;" horiz-adv-x="1012" 
d="M507 1367l393 -678l-393 -697l-394 697zM798 689l-291 510l-292 -510l292 -528z" />
    <glyph glyph-name="ydieresis" unicode="&#xff;" 
d="M597 536l4 -379q1 -116 31 -143.5t138 -34.5v-35h-501v35q113 8 142 47q23 32 23 154v362l89 262zM777 1142q0 59 -26 89t-118 41v35h455v-35q-96 -12 -120 -42t-24 -111v6q-15 -67 -32 -129q-42 -147 -92 -241q-53 -100 -129 -157l-174 -121l-184 117q-80 57 -136 161
q-112 206 -124 357v7q0 81 -24 111t-120 42v35h456v-35q-93 -11 -119 -41t-26 -89v-108q-3 -73 53 -234q36 -103 87 -160l139 -131l123 133q50 61 82 158q46 138 53 237v105zM732 1427q-42 0 -72 30t-30 72t30 72t72 30t72 -30t30 -72q0 -43 -30 -72.5t-72 -29.5zM324 1631
q42 0 72 -30t30 -72q0 -43 -30 -72.5t-72 -29.5q-43 0 -71.5 29.5t-29.5 72.5q-1 42 29 72t72 30z" />
    <glyph glyph-name="Ydieresis" unicode="&#x178;" horiz-adv-x="1479" 
d="M868 670l5 -474q2 -144 39 -178.5t172 -43.5v-44h-626v44q141 9 177 59q29 41 29 192v452l111 328zM1093 1428q0 59 -8 79q-3 7 -26 33q-31 36 -147 50v44h569v-44q-120 -15 -150 -53t-30 -138v7q-18 -84 -40 -161q-53 -184 -115 -301q-67 -126 -161 -197l-217 -151
l-230 147q-100 71 -170 201q-140 257 -155 446v9q0 100 -30 138t-150 53v44h569v-44q-116 -14 -147 -50q-23 -26 -26 -33q-8 -20 -8 -79v-135q-4 -92 67 -293q46 -130 108 -200l174 -164l153 167q62 76 103 197q58 173 67 296v132zM945 1748q-42 0 -72 30t-30 72t30 72
t72 30t72 -30t30 -72q0 -43 -30 -72.5t-72 -29.5zM537 1952q42 0 72 -30t30 -72q0 -43 -30 -72.5t-72 -29.5q-43 0 -71.5 29.5t-29.5 72.5q-1 42 29 72t72 30z" />
    <glyph glyph-name="Acircumflex" unicode="&#xc2;" horiz-adv-x="1479" 
d="M1491 -10h-589v63q120 15 150.5 49.5t30.5 163.5v147h-652v-147q0 -130 30 -164t151 -49v-63h-589v63q124 15 152 50t28 192v169q13 157 33 288q48 315 123 453q85 156 172.5 253.5t237.5 202.5q141 -110 223 -207t163 -249q92 -174 156 -756v-154q0 -157 28 -192
t152 -50v-63zM1083 571q-13 412 -66 570q-91 270 -248 452q-107 -104 -167 -208q-49 -86 -105 -244q-72 -204 -66 -570h652zM1083 488v43h-652v-43h652zM471 1635l256 341h128l256 -341h-71l-249 211l-249 -211h-71z" />
    <glyph glyph-name="Ecircumflex" unicode="&#xca;" horiz-adv-x="1251" 
d="M23 44q121 16 152 57q28 37 28 165v1094q0 124 -29 163q-34 46 -151 57v46h1155l-98 -353h-52q18 162 -20.5 210.5t-251.5 48.5h-278q-44 0 -57 -20q-9 -14 -9 -62v-549h505l-190 -97h-315v-608q0 -74 37 -87t232 -13q219 0 310 58q100 63 175 261h57l-93 -415h-1107v44z
M295 1671l256 341h128l256 -341h-71l-249 211l-249 -211h-71z" />
    <glyph glyph-name="Aacute" unicode="&#xc1;" horiz-adv-x="1479" 
d="M1491 -10h-589v63q120 15 150.5 49.5t30.5 163.5v147h-652v-147q0 -130 30 -164t151 -49v-63h-589v63q124 15 152 50t28 192v169q13 157 33 288q48 315 123 453q85 156 172.5 253.5t237.5 202.5q141 -110 223 -207t163 -249q92 -174 156 -756v-154q0 -157 28 -192
t152 -50v-63zM1083 571q-13 412 -66 570q-91 270 -248 452q-107 -104 -167 -208q-49 -86 -105 -244q-72 -204 -66 -570h652zM1083 488v43h-652v-43h652zM1164 1966l-315 -199h-83l301 303q48 49 91 50q27 1 47.5 -19.5t21.5 -47.5q1 -46 -63 -87zM731 1379z" />
    <glyph glyph-name="Edieresis" unicode="&#xcb;" horiz-adv-x="1251" 
d="M23 44q121 16 152 57q28 37 28 165v1094q0 124 -29 163q-34 46 -151 57v46h1155l-98 -353h-52q18 162 -20.5 210.5t-251.5 48.5h-278q-44 0 -57 -20q-9 -14 -9 -62v-549h505l-190 -97h-315v-608q0 -74 37 -87t232 -13q219 0 310 58q100 63 175 261h57l-93 -415h-1107v44z
M831 1748q-42 0 -72 30t-30 72t30 72t72 30t72 -30t30 -72q0 -43 -30 -72.5t-72 -29.5zM423 1952q42 0 72 -30t30 -72q0 -43 -30 -72.5t-72 -29.5q-43 0 -71.5 29.5t-29.5 72.5q-1 42 29 72t72 30z" />
    <glyph glyph-name="Egrave" unicode="&#xc8;" horiz-adv-x="1251" 
d="M23 44q121 16 152 57q28 37 28 165v1094q0 124 -29 163q-34 46 -151 57v46h1155l-98 -353h-52q18 162 -20.5 210.5t-251.5 48.5h-278q-44 0 -57 -20q-9 -14 -9 -62v-549h505l-190 -97h-315v-608q0 -74 37 -87t232 -13q219 0 310 58q100 63 175 261h57l-93 -415h-1107v44z
M753 1719h-83l-315 199q-62 39 -62 87q0 64 69 66q40 1 90 -49z" />
    <glyph glyph-name="Iacute" unicode="&#xcd;" horiz-adv-x="682" 
d="M59 44q131 13 165 50.5t34 171.5v1094q0 129 -35 170q-38 44 -164 50v46h606v-46q-124 -6 -161.5 -45.5t-37.5 -174.5v-1094q0 -142 37 -177q33 -31 162 -45v-44h-606v44zM673 1930l-315 -199h-83l301 303q48 49 91 50q27 1 47.5 -19.5t21.5 -47.5q1 -46 -63 -87z" />
    <glyph glyph-name="Icircumflex" unicode="&#xce;" horiz-adv-x="682" 
d="M59 44q131 13 165 50.5t34 171.5v1094q0 129 -35 170q-38 44 -164 50v46h606v-46q-124 -6 -161.5 -45.5t-37.5 -174.5v-1094q0 -142 37 -177q33 -31 162 -45v-44h-606v44zM40 1719l256 341h128l256 -341h-71l-249 211l-249 -211h-71z" />
    <glyph glyph-name="Idieresis" unicode="&#xcf;" horiz-adv-x="682" 
d="M59 44q131 13 165 50.5t34 171.5v1094q0 129 -35 170q-38 44 -164 50v46h606v-46q-124 -6 -161.5 -45.5t-37.5 -174.5v-1094q0 -142 37 -177q33 -31 162 -45v-44h-606v44zM540 1748q-42 0 -72 30t-30 72t30 72t72 30t72 -30t30 -72q0 -43 -30 -72.5t-72 -29.5zM132 1952
q42 0 72 -30t30 -72q0 -43 -30 -72.5t-72 -29.5q-43 0 -71.5 29.5t-29.5 72.5q-1 42 29 72t72 30z" />
    <glyph glyph-name="Igrave" unicode="&#xcc;" horiz-adv-x="682" 
d="M59 44q131 13 165 50.5t34 171.5v1094q0 129 -35 170q-38 44 -164 50v46h606v-46q-124 -6 -161.5 -45.5t-37.5 -174.5v-1094q0 -142 37 -177q33 -31 162 -45v-44h-606v44zM486 1695h-83l-315 199q-62 39 -62 87q0 64 69 66q40 1 90 -49z" />
    <glyph glyph-name="Oacute" unicode="&#xd3;" horiz-adv-x="1479" 
d="M1403 812q0 -399 -212 -636q-189 -211 -459 -211q-322 0 -507 272q-164 240 -164 575q0 395 206 632q188 216 465 217q323 0 508 -273q163 -239 163 -576zM1170 812q0 287 -79 483q-112 276 -359 277q-245 1 -358 -277q-81 -199 -81 -483q0 -286 80 -482
q113 -275 359 -276t358 276q80 197 80 482zM732 1661zM730 666l-144 144l144 144l144 -144zM1117 1947l-315 -199h-83l301 303q48 49 91 50q27 1 47.5 -19.5t21.5 -47.5q1 -46 -63 -87z" />
    <glyph glyph-name="Ocircumflex" unicode="&#xd4;" horiz-adv-x="1479" 
d="M1403 812q0 -399 -212 -636q-189 -211 -459 -211q-322 0 -507 272q-164 240 -164 575q0 395 206 632q188 216 465 217q323 0 508 -273q163 -239 163 -576zM1170 812q0 287 -79 483q-112 276 -359 277q-245 1 -358 -277q-81 -199 -81 -483q0 -286 80 -482
q113 -275 359 -276t358 276q80 197 80 482zM732 1661zM730 666l-144 144l144 144l144 -144zM412 1664l256 341h128l256 -341h-71l-249 211l-249 -211h-71z" />
    <glyph glyph-name="uniF000" unicode="&#xf000;" horiz-adv-x="1618" 
d="M588 1235q105 -30 142 -31q44 -1 153 34.5t171 35.5q122 1 219 -66q52 -36 107 -103q-81 -69 -117 -121q-66 -96 -67 -212q-1 -113 62 -216q68 -111 171 -142q-37 -121 -126 -257q-132 -201 -264 -201q-50 0 -147.5 33t-150.5 33q-55 0 -145.5 -34.5t-136.5 -34.5
q-155 -1 -308 266q-150 263 -151 516q0 210 96 358q113 172 311 173q72 0 181 -31zM1042 1637q0 -12 1 -20q0 -158 -125 -281q-55 -54 -111 -74q-24 -8 -106 -17q2 152 79 262.5t257 152.5q1 -4 2.5 -11.5t2.5 -11.5z" />
    <glyph glyph-name="Ograve" unicode="&#xd2;" horiz-adv-x="1479" 
d="M1403 812q0 -399 -212 -636q-189 -211 -459 -211q-322 0 -507 272q-164 240 -164 575q0 395 206 632q188 216 465 217q323 0 508 -273q163 -239 163 -576zM1170 812q0 287 -79 483q-112 276 -359 277q-245 1 -358 -277q-81 -199 -81 -483q0 -286 80 -482
q113 -275 359 -276t358 276q80 197 80 482zM732 1661zM730 666l-144 144l144 144l144 -144zM894 1700h-83l-315 199q-62 39 -62 87q0 64 69 66q40 1 90 -49z" />
    <glyph glyph-name="Uacute" unicode="&#xda;" horiz-adv-x="1479" 
d="M1093 1366q0 133 -34 172q-31 36 -147 50v44h569v-44q-128 -16 -159 -68q-21 -37 -21 -183v-153q-18 -169 -40 -306q-53 -329 -115 -446q-80 -152 -161 -247.5t-217 -200.5q-144 100 -230 196.5t-170 251.5q-140 257 -155 736v169q0 146 -21 183q-31 52 -159 68v44h569
v-44q-116 -14 -147 -50q-34 -39 -34 -172v-295q-4 -382 67 -583q57 -162 108 -250q62 -106 174 -214q164 188 256 464q58 173 67 586v292zM1114 1918l-315 -199h-83l301 303q48 49 91 50q27 1 47.5 -19.5t21.5 -47.5q1 -46 -63 -87z" />
    <glyph glyph-name="Ucircumflex" unicode="&#xdb;" horiz-adv-x="1479" 
d="M1093 1366q0 133 -34 172q-31 36 -147 50v44h569v-44q-128 -16 -159 -68q-21 -37 -21 -183v-153q-18 -169 -40 -306q-53 -329 -115 -446q-80 -152 -161 -247.5t-217 -200.5q-144 100 -230 196.5t-170 251.5q-140 257 -155 736v169q0 146 -21 183q-31 52 -159 68v44h569
v-44q-116 -14 -147 -50q-34 -39 -34 -172v-295q-4 -382 67 -583q57 -162 108 -250q62 -106 174 -214q164 188 256 464q58 173 67 586v292zM421 1719l256 341h128l256 -341h-71l-249 211l-249 -211h-71z" />
    <glyph glyph-name="Ugrave" unicode="&#xd9;" horiz-adv-x="1479" 
d="M1093 1366q0 133 -34 172q-31 36 -147 50v44h569v-44q-128 -16 -159 -68q-21 -37 -21 -183v-153q-18 -169 -40 -306q-53 -329 -115 -446q-80 -152 -161 -247.5t-217 -200.5q-144 100 -230 196.5t-170 251.5q-140 257 -155 736v169q0 146 -21 183q-31 52 -159 68v44h569
v-44q-116 -14 -147 -50q-34 -39 -34 -172v-295q-4 -382 67 -583q57 -162 108 -250q62 -106 174 -214q164 188 256 464q58 173 67 586v292zM879 1707h-83l-315 199q-62 39 -62 87q0 64 69 66q40 1 90 -49z" />
    <glyph glyph-name="glyph247" 
d="M843 474h-47q-23 123 -61 158q-42 38 -164 38h-216v-237h296v-80h-296v-131q0 -114 33 -144t152 -41v-37h-540v37q122 12 152 49q28 33 28 160v107h-180v80h180v700q0 109 -36 144q-33 31 -144 40v38h976l7 -294h-57q-22 145 -93 186q-52 30 -215 30h-199q-40 0 -52 -14
t-12 -55v-457h216q123 0 164 39q36 34 61 158h47v-474z" />
    <glyph glyph-name="glyph248" horiz-adv-x="1479" 
d="M1157 1576q63 0 116 79h45l-123 -517h-47q-15 180 -59 266q-78 152 -302 154q-270 2 -399 -267q-97 -204 -97 -504q0 -281 115 -480q141 -241 402 -241q60 0 144 22q97 27 129 62q18 20 18 62v393q0 140 -33.5 175t-146.5 44v46h522v-46q-73 -4 -101 -30
q-42 -38 -42 -158v-484q0 -65 -228 -131q-194 -56 -288 -56q-300 0 -506 210q-226 230 -227 622q0 341 181 588q198 270 528 270q119 0 233 -39.5t166 -39.5zM725 1655zM1086 2413q-12 -128 -58 -201q-76 -120 -247 -121q-80 0 -143 40q-119 77 -130 282h62
q25 -197 233 -198q107 -1 164 71q29 36 58 127h61zM797 1991z" />
    <glyph glyph-name="glyph249" 
d="M781 1292q88 -31 105 -31q52 0 75 63h36l13 -414h-37q-52 146 -104 213q-95 122 -252 123q-216 1 -319 -214q-78 -162 -78 -402q0 -225 92 -383q112 -194 321 -194q32 0 70.5 6.5t75.5 21.5q58 24 72.5 40t14.5 49v314q0 113 -26.5 140.5t-117.5 34.5v37h418v-37
q-59 -3 -81 -24q-34 -32 -34 -126v-387q0 -52 -182 -105q-155 -45 -230 -45q-240 0 -405 168q-181 185 -182 498q0 273 145 470q159 216 422 216q97 0 188 -32zM567 1324zM874 1977q-12 -128 -58 -201q-76 -120 -247 -121q-80 0 -143 40q-119 77 -130 282h62
q25 -197 233 -198q107 -1 164 71q29 36 58 127h61zM585 1555z" />
    <glyph glyph-name="glyph250" horiz-adv-x="682" 
d="M59 44q131 13 165 50.5t34 171.5v1094q0 129 -35 170q-38 44 -164 50v46h606v-46q-124 -6 -161.5 -45.5t-37.5 -174.5v-1094q0 -142 37 -177q33 -31 162 -45v-44h-606v44zM396 2100q-42 0 -72 30t-30 72t30 72t72 30t72 -30t30 -72q0 -43 -30 -72.5t-72 -29.5zM396 1967z
" />
    <glyph glyph-name="glyph251" horiz-adv-x="1139" 
d="M132 412q51 -137 122 -220q122 -142 303 -143q105 -1 173 65t68 170q0 100 -72 174q-44 45 -198 141l-175 109q-213 133 -213 315q0 163 107 263q105 97 269 98q66 0 168 -35q91 -32 113 -34q56 0 75 69h42l45 -436h-49q-38 153 -129 246q-103 107 -250 107
q-84 0 -146 -49.5t-63 -137.5q-1 -132 197 -254l180 -111q146 -90 210 -161q96 -105 96 -238q0 -160 -121.5 -268.5t-309.5 -108.5l-42 -109l32 6q10 1 30 2q71 0 117 -35q50 -39 51 -108q2 -171 -258 -173q-23 0 -58 5q-61 9 -110 28l28 64l31 -9q45 -13 95 -14
q40 -1 70 11q48 19 49 74q1 77 -89 79q-43 1 -78 -10l-14 12l75 177q-32 0 -126 32l-121 40q-54 0 -65 -69h-45l-61 436h47z" />
    <glyph glyph-name="glyph252" horiz-adv-x="797" 
d="M106 315h33q22 -112 62 -175q70 -111 205 -112q71 -1 116 39t46 110q1 41 -25 81t-88 76l-112 64q-130 75 -181 133q-57 66 -58 158q-1 116 84 188q79 68 197 68q43 0 97 -16q71 -21 91 -24q18 0 25.5 4.5t14.5 16.5h24l7 -279h-31q-19 95 -54 151q-62 99 -179 100
q-65 1 -107 -39.5t-43 -104.5q-1 -89 138 -164l132 -71q213 -115 213 -270q0 -122 -93 -197q-88 -71 -212 -71l-47 -117l32 6q9 1 30 2q71 0 117 -35q50 -39 51 -108q2 -171 -258 -173q-23 0 -58 5q-61 9 -110 28l28 64l31 -9q45 -13 95 -14q40 -1 70 11q48 19 49 74
q1 77 -89 79q-43 1 -78 -10l-14 12l78 185q-29 0 -84 18q-60 20 -84 22q-12 0 -20.5 -8t-14.5 -21h-26v323z" />
    <glyph glyph-name="glyph253" horiz-adv-x="1366" 
d="M986 1615q115 -39 169 -39q57 0 95 52q9 12 17 27h43l-129 -552h-47q3 167 -36 265q-75 188 -321 190q-259 2 -389 -269q-99 -209 -99 -497q0 -332 143 -526t364 -195q157 -1 293 91q80 54 169 156l38 -46q-69 -104 -169 -181q-171 -132 -373 -132q-330 0 -524 253
q-179 233 -179 585q0 357 189 602q198 256 518 256q110 0 228 -40zM751 1655zM1004 1678l-315 -199h-83l301 303q48 49 91 50q27 1 47.5 -19.5t21.5 -47.5q1 -46 -63 -87zM751 1379z" />
    <glyph glyph-name="glyph254" horiz-adv-x="909" 
d="M789 1292q90 -31 135 -31q57 0 90 63h34l-103 -442h-38q3 132 -29 212q-60 151 -256 152q-208 1 -311 -215q-80 -166 -80 -397q0 -224 90 -382q109 -194 316 -195q125 -1 234 73q64 43 135 124l31 -36q-54 -83 -135 -145q-138 -106 -299 -106q-264 0 -419 203
q-143 186 -143 468q0 286 151 481q159 205 414 205q90 0 183 -32zM601 1324zM718 1242l-315 -199h-83l301 303q48 49 91 50q27 1 47.5 -19.5t21.5 -47.5q1 -46 -63 -87zM465 943z" />
    <glyph glyph-name="glyph255" horiz-adv-x="1366" 
d="M986 1615q115 -39 169 -39q57 0 95 52q9 12 17 27h43l-129 -552h-47q3 167 -36 265q-75 188 -321 190q-259 2 -389 -269q-99 -209 -99 -497q0 -332 143 -526t364 -195q157 -1 293 91q80 54 169 156l38 -46q-69 -104 -169 -181q-171 -132 -373 -132q-330 0 -524 253
q-179 233 -179 585q0 357 189 602q198 256 518 256q110 0 228 -40zM751 1655zM1143 2420l-256 -341h-128l-256 341h71l249 -211l249 211h71zM823 1979z" />
    <glyph glyph-name="glyph256" horiz-adv-x="909" 
d="M789 1292q90 -31 135 -31q57 0 90 63h34l-103 -442h-38q3 132 -29 212q-60 151 -256 152q-208 1 -311 -215q-80 -166 -80 -397q0 -224 90 -382q109 -194 316 -195q125 -1 234 73q64 43 135 124l31 -36q-54 -83 -135 -145q-138 -106 -299 -106q-264 0 -419 203
q-143 186 -143 468q0 286 151 481q159 205 414 205q90 0 183 -32zM601 1324zM857 1984l-256 -341h-128l-256 341h71l249 -211l249 211h71zM537 1543z" />
    <glyph glyph-name="glyph257" 
d="M696 855v208h-312v89h312q0 81 -13.5 104t-64.5 24q-9 0 -21 -1q-18 -1 -40 -4v33l82 21q107 27 169 50l53 19q1 0 2 -0.5t4 -1.5l-2 -105q-1 -42 -3 -139h162v-89h-164v-826q0 -69 16 -90q19 -26 85 -27h22q10 0 22 3v-33q-9 -2 -76 -26l-69 -24l-157 -59q-1 0 -3.5 2.5
t-3.5 6.5v123q-57 -62 -97 -87q-71 -45 -169 -45q-172 0 -280 135q-101 125 -101 301q0 203 114 358q125 170 322 170q117 0 211 -90zM696 222v429q0 98 -52 164q-57 73 -153 73q-136 0 -208 -131q-57 -106 -58 -255q-1 -161 66 -276q81 -137 231 -137q59 0 113 36
q61 40 61 97z" />
    </font>
</defs>
</svg>
